G04 ================== begin FILE IDENTIFICATION RECORD ==================*
G04 Layout Name:  C:/Users/kellyy/Desktop/P1/allegro/OSCILATOR4.brd*
G04 Film Name:    MECANIC*
G04 File Format:  Gerber RS274X*
G04 File Origin:  Cadence Allegro 17.2-S025*
G04 Origin Date:  Mon Dec 18 21:02:03 2023*
G04 *
G04 Layer:  MANUFACTURING/PHOTOPLOT_OUTLINE*
G04 Layer:  MANUFACTURING/NO_GLOSS_ALL*
G04 Layer:  MANUFACTURING/NO_GLOSS_TOP*
G04 Layer:  MANUFACTURING/NO_GLOSS_BOTTOM*
G04 Layer:  MANUFACTURING/NO_GLOSS_INTERNAL*
G04 Layer:  MANUFACTURING/NCDRILL_LEGEND*
G04 Layer:  MANUFACTURING/NCDRILL_FIGURE*
G04 Layer:  MANUFACTURING/PROBE_TOP*
G04 Layer:  MANUFACTURING/PROBE_BOTTOM*
G04 Layer:  MANUFACTURING/AUTOSILK_TOP*
G04 Layer:  MANUFACTURING/AUTOSILK_BOTTOM*
G04 Layer:  MANUFACTURING/NO_PROBE_TOP*
G04 Layer:  MANUFACTURING/NO_PROBE_BOTTOM*
G04 Layer:  MANUFACTURING/XSECTION_CHART*
G04 Layer:  MANUFACTURING/NCLEGEND-1-2*
G04 Layer:  BOARD GEOMETRY/DIMENSION*
G04 Layer:  BOARD GEOMETRY/DESIGN_OUTLINE*
G04 *
G04 Offset:    (0.00 0.00)*
G04 Mirror:    No*
G04 Mode:      Positive*
G04 Rotation:  0*
G04 FullContactRelief:  No*
G04 UndefLineWidth:     0.10*
G04 ================== end FILE IDENTIFICATION RECORD ====================*
%FSLAX25Y25*MOIN*%
%IR0*IPPOS*OFA0.00000B0.00000*MIA0B0*SFA1.00000B1.00000*%
%AMMACRO11*
1,1,.0001,.025,0.0*
20,1,.0001,.025,0.0,.02462,-.004341,0.0*
1,1,.0001,.02462,-.004341*
20,1,.0001,.02462,-.004341,.023492,-.008551,0.0*
1,1,.0001,.023492,-.008551*
20,1,.0001,.023492,-.008551,.021651,-.0125,0.0*
1,1,.0001,.021651,-.0125*
20,1,.0001,.021651,-.0125,.019151,-.01607,0.0*
1,1,.0001,.019151,-.01607*
20,1,.0001,.019151,-.01607,.01607,-.019151,0.0*
1,1,.0001,.01607,-.019151*
20,1,.0001,.01607,-.019151,.0125,-.021651,0.0*
1,1,.0001,.0125,-.021651*
20,1,.0001,.0125,-.021651,.008551,-.023492,0.0*
1,1,.0001,.008551,-.023492*
20,1,.0001,.008551,-.023492,.004341,-.02462,0.0*
1,1,.0001,.004341,-.02462*
20,1,.0001,.004341,-.02462,0.0,-.025,0.0*
1,1,.0001,0.0,-.025*
20,1,.0001,0.0,-.025,-.004341,-.02462,0.0*
1,1,.0001,-.004341,-.02462*
20,1,.0001,-.004341,-.02462,-.008551,-.023492,0.0*
1,1,.0001,-.008551,-.023492*
20,1,.0001,-.008551,-.023492,-.0125,-.021651,0.0*
1,1,.0001,-.0125,-.021651*
20,1,.0001,-.0125,-.021651,-.01607,-.019151,0.0*
1,1,.0001,-.01607,-.019151*
20,1,.0001,-.01607,-.019151,-.019151,-.01607,0.0*
1,1,.0001,-.019151,-.01607*
20,1,.0001,-.019151,-.01607,-.021651,-.0125,0.0*
1,1,.0001,-.021651,-.0125*
20,1,.0001,-.021651,-.0125,-.023492,-.008551,0.0*
1,1,.0001,-.023492,-.008551*
20,1,.0001,-.023492,-.008551,-.02462,-.004341,0.0*
1,1,.0001,-.02462,-.004341*
20,1,.0001,-.02462,-.004341,-.025,0.0,0.0*
1,1,.0001,-.025,0.0*
20,1,.0001,-.025,0.0,-.02462,.004341,0.0*
1,1,.0001,-.02462,.004341*
20,1,.0001,-.02462,.004341,-.023492,.008551,0.0*
1,1,.0001,-.023492,.008551*
20,1,.0001,-.023492,.008551,-.021651,.0125,0.0*
1,1,.0001,-.021651,.0125*
20,1,.0001,-.021651,.0125,-.019151,.01607,0.0*
1,1,.0001,-.019151,.01607*
20,1,.0001,-.019151,.01607,-.01607,.019151,0.0*
1,1,.0001,-.01607,.019151*
20,1,.0001,-.01607,.019151,-.0125,.021651,0.0*
1,1,.0001,-.0125,.021651*
20,1,.0001,-.0125,.021651,-.008551,.023492,0.0*
1,1,.0001,-.008551,.023492*
20,1,.0001,-.008551,.023492,-.004341,.02462,0.0*
1,1,.0001,-.004341,.02462*
20,1,.0001,-.004341,.02462,0.0,.025,0.0*
1,1,.0001,0.0,.025*
20,1,.0001,0.0,.025,.004341,.02462,0.0*
1,1,.0001,.004341,.02462*
20,1,.0001,.004341,.02462,.008551,.023492,0.0*
1,1,.0001,.008551,.023492*
20,1,.0001,.008551,.023492,.0125,.021651,0.0*
1,1,.0001,.0125,.021651*
20,1,.0001,.0125,.021651,.01607,.019151,0.0*
1,1,.0001,.01607,.019151*
20,1,.0001,.01607,.019151,.019151,.01607,0.0*
1,1,.0001,.019151,.01607*
20,1,.0001,.019151,.01607,.021651,.0125,0.0*
1,1,.0001,.021651,.0125*
20,1,.0001,.021651,.0125,.023492,.008551,0.0*
1,1,.0001,.023492,.008551*
20,1,.0001,.023492,.008551,.02462,.004341,0.0*
1,1,.0001,.02462,.004341*
20,1,.0001,.02462,.004341,.025,0.0,0.0*
1,1,.0001,.025,0.0*
1,1,.0001,.0125,0.0*
20,1,.0001,.0125,0.0,-.0125,0.0,0.0*
1,1,.0001,-.0125,0.0*
1,1,.0001,0.0,.0125*
20,1,.0001,0.0,.0125,0.0,-.0125,0.0*
1,1,.0001,0.0,-.0125*
%
%ADD11MACRO11*%
%AMMACRO10*
1,1,.0001,0.0,.012*
20,1,.0001,0.0,.012,.012,-.012,0.0*
1,1,.0001,.012,-.012*
20,1,.0001,.012,-.012,-.012,-.012,0.0*
1,1,.0001,-.012,-.012*
20,1,.0001,-.012,-.012,0.0,.012,0.0*
1,1,.0001,0.0,.012*
%
%ADD10MACRO10*%
%ADD12C,.0001*%
%ADD13C,.006*%
G75*
%LPD*%
G75*
G36*
G01X221250Y218949D02*
Y216540D01*
X223750D01*
Y20572D01*
X221250D01*
Y18163D01*
X236250D01*
Y20572D01*
X233750D01*
Y216540D01*
X236250D01*
Y218949D01*
X221250D01*
G37*
G36*
G01X201250Y18163D02*
Y20572D01*
X261250D01*
Y18163D01*
X201250D01*
G37*
G36*
G01Y216540D02*
Y218949D01*
X261250D01*
Y216540D01*
X201250D01*
G37*
G54D10*
X28700Y47100D03*
D03*
X26200Y88900D03*
D03*
X77200Y47100D03*
D03*
X85300Y69800D03*
D03*
X77600Y111400D03*
D03*
X89200Y116900D03*
D03*
X90200Y147600D03*
D03*
X98300Y20100D03*
D03*
X115900Y40200D03*
D03*
X104000Y147600D03*
D03*
X136600Y40200D03*
D03*
X135500Y97100D03*
D03*
X135800Y86100D03*
D03*
G54D11*
X28700Y47100D03*
X26200Y88900D03*
X38250Y-49650D03*
X77200Y47100D03*
X85300Y69800D03*
X77600Y111400D03*
X89200Y116900D03*
X90200Y147600D03*
X98300Y20100D03*
X115900Y40200D03*
X104000Y147600D03*
X136600Y40200D03*
X135500Y97100D03*
X135800Y86100D03*
G54D12*
G01X-10000Y0D02*
X-56600D01*
G01X-46600Y64375D02*
Y0D01*
G01X-49100Y15000D02*
X-46600Y0D01*
X-44100Y15000D01*
X-49100D01*
G01X-46600Y95625D02*
Y157480D01*
G01X-10000D02*
X-56600D01*
G01X-44100Y142480D02*
X-46600Y157480D01*
X-49100Y142480D01*
X-44100D01*
G01X27100Y-53400D02*
Y-10900D01*
X150400D01*
Y-53400D01*
X27100D01*
G01Y-40900D02*
X150400D01*
G01X27100Y-45900D02*
X150400D01*
G01X27100Y-35900D02*
X150400D01*
G01X0Y0D02*
Y157480D01*
X157480D01*
Y0D01*
X0D01*
G01Y167480D02*
Y183900D01*
G01X40675Y173900D02*
X0D01*
G01X15000Y176400D02*
X0Y173900D01*
X15000Y171400D01*
Y176400D01*
G01X49400Y-40900D02*
Y-53400D01*
G01X99600Y-40900D02*
Y-53400D01*
G01X118325Y173900D02*
X157480D01*
G01X131200Y-40900D02*
Y-53400D01*
G01X142480Y171400D02*
X157480Y173900D01*
X142480Y176400D01*
Y171400D01*
G01X157480Y167480D02*
Y183900D01*
G01X201250Y20572D02*
Y216540D01*
X261250D01*
Y20572D01*
X201250D01*
G54D13*
G01X-74300Y73750D02*
Y76550D01*
X-75842Y74543D01*
X-73758D01*
G01X-71700Y76550D02*
X-72033Y76457D01*
X-72283Y76223D01*
X-72450Y75943D01*
X-72575Y75570D01*
X-72617Y75150D01*
X-72575Y74730D01*
X-72450Y74357D01*
X-72283Y74077D01*
X-72033Y73843D01*
X-71700Y73750D01*
X-71367Y73843D01*
X-71117Y74077D01*
X-70950Y74357D01*
X-70825Y74730D01*
X-70783Y75150D01*
X-70825Y75570D01*
X-70950Y75943D01*
X-71117Y76223D01*
X-71367Y76457D01*
X-71700Y76550D01*
G01X-68600Y73657D02*
X-68683Y73703D01*
Y73797D01*
X-68600Y73843D01*
X-68517Y73797D01*
Y73703D01*
X-68600Y73657D01*
G01X-65500Y76550D02*
X-65833Y76457D01*
X-66083Y76223D01*
X-66250Y75943D01*
X-66375Y75570D01*
X-66417Y75150D01*
X-66375Y74730D01*
X-66250Y74357D01*
X-66083Y74077D01*
X-65833Y73843D01*
X-65500Y73750D01*
X-65167Y73843D01*
X-64917Y74077D01*
X-64750Y74357D01*
X-64625Y74730D01*
X-64583Y75150D01*
X-64625Y75570D01*
X-64750Y75943D01*
X-64917Y76223D01*
X-65167Y76457D01*
X-65500Y76550D01*
G01X-62400D02*
X-62733Y76457D01*
X-62983Y76223D01*
X-63150Y75943D01*
X-63275Y75570D01*
X-63317Y75150D01*
X-63275Y74730D01*
X-63150Y74357D01*
X-62983Y74077D01*
X-62733Y73843D01*
X-62400Y73750D01*
X-62067Y73843D01*
X-61817Y74077D01*
X-61650Y74357D01*
X-61525Y74730D01*
X-61483Y75150D01*
X-61525Y75570D01*
X-61650Y75943D01*
X-61817Y76223D01*
X-62067Y76457D01*
X-62400Y76550D01*
G01X29708Y-44650D02*
Y-41850D01*
X31292D01*
G01X30708Y-43203D02*
X29708D01*
G01X33100Y-41850D02*
X34100D01*
G01X33600D02*
Y-44650D01*
G01X33100D02*
X34100D01*
G01X36950Y-43250D02*
X37783D01*
Y-44090D01*
X37533Y-44370D01*
X37242Y-44557D01*
X36825Y-44650D01*
X36408Y-44557D01*
X36117Y-44370D01*
X35867Y-44090D01*
X35700Y-43763D01*
X35617Y-43390D01*
Y-43063D01*
X35700Y-42783D01*
X35867Y-42457D01*
X36117Y-42177D01*
X36367Y-41990D01*
X36700Y-41850D01*
X36992D01*
X37325Y-41943D01*
X37575Y-42130D01*
G01X38883Y-41850D02*
Y-43857D01*
X39050Y-44277D01*
X39383Y-44557D01*
X39800Y-44650D01*
X40217Y-44557D01*
X40550Y-44277D01*
X40717Y-43857D01*
Y-41850D01*
G01X42067Y-44650D02*
Y-41850D01*
X43108D01*
X43442Y-41990D01*
X43650Y-42177D01*
X43733Y-42550D01*
X43650Y-42923D01*
X43400Y-43157D01*
X43108Y-43297D01*
X42067D01*
G01X43108D02*
X43733Y-44650D01*
G01X46833D02*
X45167D01*
Y-41850D01*
X46833D01*
G01X46167Y-43203D02*
X45167D01*
G01X45858Y-39650D02*
X46900Y-36850D01*
X47942Y-39650D01*
G01X47567Y-38670D02*
X46233D01*
G01X49167Y-36850D02*
Y-39650D01*
X50833D01*
G01X52267Y-36850D02*
Y-39650D01*
X53933D01*
G01X58383Y-36850D02*
Y-38857D01*
X58550Y-39277D01*
X58883Y-39557D01*
X59300Y-39650D01*
X59717Y-39557D01*
X60050Y-39277D01*
X60217Y-38857D01*
Y-36850D01*
G01X61442Y-39650D02*
Y-36850D01*
X63358Y-39650D01*
Y-36850D01*
G01X65000D02*
X66000D01*
G01X65500D02*
Y-39650D01*
G01X65000D02*
X66000D01*
G01X68600Y-36850D02*
Y-39650D01*
G01X67642Y-36850D02*
X69558D01*
G01X70825Y-39277D02*
X71158Y-39510D01*
X71533Y-39650D01*
X71867D01*
X72200Y-39510D01*
X72450Y-39277D01*
X72575Y-38950D01*
X72492Y-38623D01*
X72283Y-38343D01*
X71908Y-38157D01*
X71408Y-38063D01*
X71117Y-37877D01*
X70992Y-37550D01*
X71075Y-37223D01*
X71283Y-36990D01*
X71575Y-36850D01*
X71867D01*
X72158Y-36943D01*
X72408Y-37177D01*
G01X76858Y-39650D02*
X77900Y-36850D01*
X78942Y-39650D01*
G01X78567Y-38670D02*
X77233D01*
G01X80167Y-39650D02*
Y-36850D01*
X81208D01*
X81542Y-36990D01*
X81750Y-37177D01*
X81833Y-37550D01*
X81750Y-37923D01*
X81500Y-38157D01*
X81208Y-38297D01*
X80167D01*
G01X81208D02*
X81833Y-39650D01*
G01X84933D02*
X83267D01*
Y-36850D01*
X84933D01*
G01X84267Y-38203D02*
X83267D01*
G01X89800Y-36850D02*
X90800D01*
G01X90300D02*
Y-39650D01*
G01X89800D02*
X90800D01*
G01X92442D02*
Y-36850D01*
X94358Y-39650D01*
Y-36850D01*
G01X98517Y-39650D02*
Y-36850D01*
X99600Y-39183D01*
X100683Y-36850D01*
Y-39650D01*
G01X102200Y-36850D02*
X103200D01*
G01X102700D02*
Y-39650D01*
G01X102200D02*
X103200D01*
G01X104967Y-36850D02*
Y-39650D01*
X106633D01*
G01X108067Y-36850D02*
Y-39650D01*
X109733D01*
G01X111500Y-36850D02*
X112500D01*
G01X112000D02*
Y-39650D01*
G01X111500D02*
X112500D01*
G01X114017D02*
Y-36850D01*
X115100Y-39183D01*
X116183Y-36850D01*
Y-39650D01*
G01X119033D02*
X117367D01*
Y-36850D01*
X119033D01*
G01X118367Y-38203D02*
X117367D01*
G01X121300Y-36850D02*
Y-39650D01*
G01X120342Y-36850D02*
X122258D01*
G01X125233Y-39650D02*
X123567D01*
Y-36850D01*
X125233D01*
G01X124567Y-38203D02*
X123567D01*
G01X126667Y-39650D02*
Y-36850D01*
X127708D01*
X128042Y-36990D01*
X128250Y-37177D01*
X128333Y-37550D01*
X128250Y-37923D01*
X128000Y-38157D01*
X127708Y-38297D01*
X126667D01*
G01X127708D02*
X128333Y-39650D01*
G01X129725Y-39277D02*
X130058Y-39510D01*
X130433Y-39650D01*
X130767D01*
X131100Y-39510D01*
X131350Y-39277D01*
X131475Y-38950D01*
X131392Y-38623D01*
X131183Y-38343D01*
X130808Y-38157D01*
X130308Y-38063D01*
X130017Y-37877D01*
X129892Y-37550D01*
X129975Y-37223D01*
X130183Y-36990D01*
X130475Y-36850D01*
X130767D01*
X131058Y-36943D01*
X131308Y-37177D01*
G01X55108Y-44650D02*
Y-41850D01*
X56692D01*
G01X56108Y-43203D02*
X55108D01*
G01X58500Y-41850D02*
X59500D01*
G01X59000D02*
Y-44650D01*
G01X58500D02*
X59500D01*
G01X61142D02*
Y-41850D01*
X63058Y-44650D01*
Y-41850D01*
G01X64700D02*
X65700D01*
G01X65200D02*
Y-44650D01*
G01X64700D02*
X65700D01*
G01X67425Y-44277D02*
X67758Y-44510D01*
X68133Y-44650D01*
X68467D01*
X68800Y-44510D01*
X69050Y-44277D01*
X69175Y-43950D01*
X69092Y-43623D01*
X68883Y-43343D01*
X68508Y-43157D01*
X68008Y-43063D01*
X67717Y-42877D01*
X67592Y-42550D01*
X67675Y-42223D01*
X67883Y-41990D01*
X68175Y-41850D01*
X68467D01*
X68758Y-41943D01*
X69008Y-42177D01*
G01X70525Y-44650D02*
Y-41850D01*
G01X72275D02*
Y-44650D01*
G01Y-43250D02*
X70525D01*
G01X75333Y-44650D02*
X73667D01*
Y-41850D01*
X75333D01*
G01X74667Y-43203D02*
X73667D01*
G01X76683Y-44650D02*
Y-41850D01*
X77517D01*
X77850Y-41990D01*
X78100Y-42177D01*
X78308Y-42457D01*
X78475Y-42783D01*
X78517Y-43250D01*
X78475Y-43717D01*
X78308Y-44043D01*
X78100Y-44323D01*
X77850Y-44510D01*
X77517Y-44650D01*
X76683D01*
G01X79450Y-45583D02*
X81950D01*
G01X82925Y-44277D02*
X83258Y-44510D01*
X83633Y-44650D01*
X83967D01*
X84300Y-44510D01*
X84550Y-44277D01*
X84675Y-43950D01*
X84592Y-43623D01*
X84383Y-43343D01*
X84008Y-43157D01*
X83508Y-43063D01*
X83217Y-42877D01*
X83092Y-42550D01*
X83175Y-42223D01*
X83383Y-41990D01*
X83675Y-41850D01*
X83967D01*
X84258Y-41943D01*
X84508Y-42177D01*
G01X86400Y-41850D02*
X87400D01*
G01X86900D02*
Y-44650D01*
G01X86400D02*
X87400D01*
G01X89208Y-41850D02*
X90792D01*
X89208Y-44650D01*
X90792D01*
G01X93933D02*
X92267D01*
Y-41850D01*
X93933D01*
G01X93267Y-43203D02*
X92267D01*
G01X49083Y-14650D02*
Y-11850D01*
X49917D01*
X50250Y-11990D01*
X50500Y-12177D01*
X50708Y-12457D01*
X50875Y-12783D01*
X50917Y-13250D01*
X50875Y-13717D01*
X50708Y-14043D01*
X50500Y-14323D01*
X50250Y-14510D01*
X49917Y-14650D01*
X49083D01*
G01X52267D02*
Y-11850D01*
X53308D01*
X53642Y-11990D01*
X53850Y-12177D01*
X53933Y-12550D01*
X53850Y-12923D01*
X53600Y-13157D01*
X53308Y-13297D01*
X52267D01*
G01X53308D02*
X53933Y-14650D01*
G01X55700Y-11850D02*
X56700D01*
G01X56200D02*
Y-14650D01*
G01X55700D02*
X56700D01*
G01X58467Y-11850D02*
Y-14650D01*
X60133D01*
G01X61567Y-11850D02*
Y-14650D01*
X63233D01*
G01X69517Y-12083D02*
X69267Y-11943D01*
X68975Y-11850D01*
X68642D01*
X68267Y-11990D01*
X67975Y-12223D01*
X67767Y-12503D01*
X67600Y-12970D01*
X67558Y-13390D01*
X67642Y-13810D01*
X67767Y-14090D01*
X68017Y-14370D01*
X68308Y-14557D01*
X68600Y-14650D01*
X68892D01*
X69183Y-14557D01*
X69433Y-14417D01*
X69642Y-14230D01*
G01X70825Y-14650D02*
Y-11850D01*
G01X72575D02*
Y-14650D01*
G01Y-13250D02*
X70825D01*
G01X73758Y-14650D02*
X74800Y-11850D01*
X75842Y-14650D01*
G01X75467Y-13670D02*
X74133D01*
G01X77067Y-14650D02*
Y-11850D01*
X78108D01*
X78442Y-11990D01*
X78650Y-12177D01*
X78733Y-12550D01*
X78650Y-12923D01*
X78400Y-13157D01*
X78108Y-13297D01*
X77067D01*
G01X78108D02*
X78733Y-14650D01*
G01X81000Y-11850D02*
Y-14650D01*
G01X80042Y-11850D02*
X81958D01*
G01X84100Y-14743D02*
X84017Y-14697D01*
Y-14603D01*
X84100Y-14557D01*
X84183Y-14603D01*
Y-14697D01*
X84100Y-14743D01*
G01Y-13483D02*
X84017Y-13437D01*
Y-13343D01*
X84100Y-13297D01*
X84183Y-13343D01*
Y-13437D01*
X84100Y-13483D01*
G01X90300Y-11850D02*
Y-14650D01*
G01X89342Y-11850D02*
X91258D01*
G01X93400Y-14650D02*
X93067Y-14603D01*
X92775Y-14417D01*
X92525Y-14137D01*
X92358Y-13810D01*
X92275Y-13437D01*
Y-13063D01*
X92358Y-12690D01*
X92525Y-12363D01*
X92775Y-12083D01*
X93067Y-11897D01*
X93400Y-11850D01*
X93733Y-11897D01*
X94025Y-12083D01*
X94275Y-12363D01*
X94442Y-12690D01*
X94525Y-13063D01*
Y-13437D01*
X94442Y-13810D01*
X94275Y-14137D01*
X94025Y-14417D01*
X93733Y-14603D01*
X93400Y-14650D01*
G01X95667D02*
Y-11850D01*
X96667D01*
X97000Y-11990D01*
X97250Y-12317D01*
X97333Y-12690D01*
X97250Y-13063D01*
X97042Y-13343D01*
X96667Y-13483D01*
X95667D01*
G01X102700Y-11850D02*
Y-14650D01*
G01X102117Y-12783D02*
X103283D01*
G01X105800Y-14650D02*
X105550Y-14603D01*
X105300Y-14417D01*
X105133Y-14090D01*
X105050Y-13717D01*
X105133Y-13343D01*
X105300Y-13017D01*
X105550Y-12830D01*
X105800Y-12783D01*
X106050Y-12830D01*
X106300Y-13017D01*
X106467Y-13343D01*
X106508Y-13717D01*
X106467Y-14090D01*
X106300Y-14417D01*
X106050Y-14603D01*
X105800Y-14650D01*
G01X112333Y-13157D02*
X112500Y-13017D01*
X112625Y-12783D01*
X112708Y-12457D01*
X112625Y-12177D01*
X112458Y-11990D01*
X112167Y-11850D01*
X111042D01*
Y-14650D01*
X112417D01*
X112708Y-14463D01*
X112875Y-14183D01*
X112958Y-13857D01*
X112875Y-13530D01*
X112625Y-13250D01*
X112333Y-13157D01*
X111042D01*
G01X115100Y-14650D02*
X114767Y-14603D01*
X114475Y-14417D01*
X114225Y-14137D01*
X114058Y-13810D01*
X113975Y-13437D01*
Y-13063D01*
X114058Y-12690D01*
X114225Y-12363D01*
X114475Y-12083D01*
X114767Y-11897D01*
X115100Y-11850D01*
X115433Y-11897D01*
X115725Y-12083D01*
X115975Y-12363D01*
X116142Y-12690D01*
X116225Y-13063D01*
Y-13437D01*
X116142Y-13810D01*
X115975Y-14137D01*
X115725Y-14417D01*
X115433Y-14603D01*
X115100Y-14650D01*
G01X118200Y-11850D02*
Y-14650D01*
G01X117242Y-11850D02*
X119158D01*
G01X121300D02*
Y-14650D01*
G01X120342Y-11850D02*
X122258D01*
G01X124400Y-14650D02*
X124067Y-14603D01*
X123775Y-14417D01*
X123525Y-14137D01*
X123358Y-13810D01*
X123275Y-13437D01*
Y-13063D01*
X123358Y-12690D01*
X123525Y-12363D01*
X123775Y-12083D01*
X124067Y-11897D01*
X124400Y-11850D01*
X124733Y-11897D01*
X125025Y-12083D01*
X125275Y-12363D01*
X125442Y-12690D01*
X125525Y-13063D01*
Y-13437D01*
X125442Y-13810D01*
X125275Y-14137D01*
X125025Y-14417D01*
X124733Y-14603D01*
X124400Y-14650D01*
G01X126417D02*
Y-11850D01*
X127500Y-14183D01*
X128583Y-11850D01*
Y-14650D01*
G01X51800Y167650D02*
Y170450D01*
X50258Y168443D01*
X52342D01*
G01X54400Y170450D02*
X54067Y170357D01*
X53817Y170123D01*
X53650Y169843D01*
X53525Y169470D01*
X53483Y169050D01*
X53525Y168630D01*
X53650Y168257D01*
X53817Y167977D01*
X54067Y167743D01*
X54400Y167650D01*
X54733Y167743D01*
X54983Y167977D01*
X55150Y168257D01*
X55275Y168630D01*
X55317Y169050D01*
X55275Y169470D01*
X55150Y169843D01*
X54983Y170123D01*
X54733Y170357D01*
X54400Y170450D01*
G01X57500Y167557D02*
X57417Y167603D01*
Y167697D01*
X57500Y167743D01*
X57583Y167697D01*
Y167603D01*
X57500Y167557D01*
G01X60600Y170450D02*
X60267Y170357D01*
X60017Y170123D01*
X59850Y169843D01*
X59725Y169470D01*
X59683Y169050D01*
X59725Y168630D01*
X59850Y168257D01*
X60017Y167977D01*
X60267Y167743D01*
X60600Y167650D01*
X60933Y167743D01*
X61183Y167977D01*
X61350Y168257D01*
X61475Y168630D01*
X61517Y169050D01*
X61475Y169470D01*
X61350Y169843D01*
X61183Y170123D01*
X60933Y170357D01*
X60600Y170450D01*
G01X63700D02*
X63367Y170357D01*
X63117Y170123D01*
X62950Y169843D01*
X62825Y169470D01*
X62783Y169050D01*
X62825Y168630D01*
X62950Y168257D01*
X63117Y167977D01*
X63367Y167743D01*
X63700Y167650D01*
X64033Y167743D01*
X64283Y167977D01*
X64450Y168257D01*
X64575Y168630D01*
X64617Y169050D01*
X64575Y169470D01*
X64450Y169843D01*
X64283Y170123D01*
X64033Y170357D01*
X63700Y170450D01*
G01X71400Y-48100D02*
X71067Y-48193D01*
X70817Y-48427D01*
X70650Y-48707D01*
X70525Y-49080D01*
X70483Y-49500D01*
X70525Y-49920D01*
X70650Y-50293D01*
X70817Y-50573D01*
X71067Y-50807D01*
X71400Y-50900D01*
X71733Y-50807D01*
X71983Y-50573D01*
X72150Y-50293D01*
X72275Y-49920D01*
X72317Y-49500D01*
X72275Y-49080D01*
X72150Y-48707D01*
X71983Y-48427D01*
X71733Y-48193D01*
X71400Y-48100D01*
G01X74500Y-50993D02*
X74417Y-50947D01*
Y-50853D01*
X74500Y-50807D01*
X74583Y-50853D01*
Y-50947D01*
X74500Y-50993D01*
G01X78100Y-50900D02*
Y-48100D01*
X76558Y-50107D01*
X78642D01*
G01X106817Y-44650D02*
Y-41850D01*
X107817D01*
X108150Y-41990D01*
X108400Y-42317D01*
X108483Y-42690D01*
X108400Y-43063D01*
X108192Y-43343D01*
X107817Y-43483D01*
X106817D01*
G01X109917Y-41850D02*
Y-44650D01*
X111583D01*
G01X112808D02*
X113850Y-41850D01*
X114892Y-44650D01*
G01X114517Y-43670D02*
X113183D01*
G01X116950Y-41850D02*
Y-44650D01*
G01X115992Y-41850D02*
X117908D01*
G01X120883Y-44650D02*
X119217D01*
Y-41850D01*
X120883D01*
G01X120217Y-43203D02*
X119217D01*
G01X122233Y-44650D02*
Y-41850D01*
X123067D01*
X123400Y-41990D01*
X123650Y-42177D01*
X123858Y-42457D01*
X124025Y-42783D01*
X124067Y-43250D01*
X124025Y-43717D01*
X123858Y-44043D01*
X123650Y-44323D01*
X123400Y-44510D01*
X123067Y-44650D01*
X122233D01*
G01X106817Y-50900D02*
Y-48100D01*
X107817D01*
X108150Y-48240D01*
X108400Y-48567D01*
X108483Y-48940D01*
X108400Y-49313D01*
X108192Y-49593D01*
X107817Y-49733D01*
X106817D01*
G01X109917Y-48100D02*
Y-50900D01*
X111583D01*
G01X112808D02*
X113850Y-48100D01*
X114892Y-50900D01*
G01X114517Y-49920D02*
X113183D01*
G01X116950Y-48100D02*
Y-50900D01*
G01X115992Y-48100D02*
X117908D01*
G01X120883Y-50900D02*
X119217D01*
Y-48100D01*
X120883D01*
G01X120217Y-49453D02*
X119217D01*
G01X122233Y-50900D02*
Y-48100D01*
X123067D01*
X123400Y-48240D01*
X123650Y-48427D01*
X123858Y-48707D01*
X124025Y-49033D01*
X124067Y-49500D01*
X124025Y-49967D01*
X123858Y-50293D01*
X123650Y-50573D01*
X123400Y-50760D01*
X123067Y-50900D01*
X122233D01*
G01X137700Y-44650D02*
X137367Y-44603D01*
X137075Y-44417D01*
X136825Y-44137D01*
X136658Y-43810D01*
X136575Y-43437D01*
Y-43063D01*
X136658Y-42690D01*
X136825Y-42363D01*
X137075Y-42083D01*
X137367Y-41897D01*
X137700Y-41850D01*
X138033Y-41897D01*
X138325Y-42083D01*
X138575Y-42363D01*
X138742Y-42690D01*
X138825Y-43063D01*
Y-43437D01*
X138742Y-43810D01*
X138575Y-44137D01*
X138325Y-44417D01*
X138033Y-44603D01*
X137700Y-44650D01*
G01X138033Y-43903D02*
X138533Y-44650D01*
G01X140800Y-41850D02*
Y-44650D01*
G01X139842Y-41850D02*
X141758D01*
G01X143900Y-44650D02*
Y-43390D01*
X143067Y-41850D01*
G01X144733D02*
X143900Y-43390D01*
G01X139250Y-50900D02*
Y-48100D01*
X138750Y-48660D01*
G01Y-50900D02*
X139750D01*
G01X141433Y-50340D02*
X141683Y-50667D01*
X142017Y-50853D01*
X142392Y-50900D01*
X142725Y-50853D01*
X143058Y-50620D01*
X143267Y-50340D01*
X143308Y-50060D01*
X143225Y-49733D01*
X142933Y-49500D01*
X142642Y-49407D01*
X142267D01*
G01X142642D02*
X142892Y-49267D01*
X143100Y-49033D01*
X143183Y-48753D01*
X143100Y-48473D01*
X142892Y-48240D01*
X142517Y-48100D01*
X142142Y-48147D01*
X141767Y-48333D01*
G01X191583Y6273D02*
Y9073D01*
X192417D01*
X192750Y8933D01*
X193000Y8746D01*
X193208Y8466D01*
X193375Y8140D01*
X193417Y7673D01*
X193375Y7206D01*
X193208Y6880D01*
X193000Y6600D01*
X192750Y6413D01*
X192417Y6273D01*
X191583D01*
G01X196433D02*
X194767D01*
Y9073D01*
X196433D01*
G01X195767Y7720D02*
X194767D01*
G01X197825Y6646D02*
X198158Y6413D01*
X198533Y6273D01*
X198867D01*
X199200Y6413D01*
X199450Y6646D01*
X199575Y6973D01*
X199492Y7300D01*
X199283Y7580D01*
X198908Y7766D01*
X198408Y7860D01*
X198117Y8046D01*
X197992Y8373D01*
X198075Y8700D01*
X198283Y8933D01*
X198575Y9073D01*
X198867D01*
X199158Y8980D01*
X199408Y8746D01*
G01X201300Y9073D02*
X202300D01*
G01X201800D02*
Y6273D01*
G01X201300D02*
X202300D01*
G01X205150Y7673D02*
X205983D01*
Y6833D01*
X205733Y6553D01*
X205442Y6366D01*
X205025Y6273D01*
X204608Y6366D01*
X204317Y6553D01*
X204067Y6833D01*
X203900Y7160D01*
X203817Y7533D01*
Y7860D01*
X203900Y8140D01*
X204067Y8466D01*
X204317Y8746D01*
X204567Y8933D01*
X204900Y9073D01*
X205192D01*
X205525Y8980D01*
X205775Y8793D01*
G01X207042Y6273D02*
Y9073D01*
X208958Y6273D01*
Y9073D01*
G01X215117Y8840D02*
X214867Y8980D01*
X214575Y9073D01*
X214242D01*
X213867Y8933D01*
X213575Y8700D01*
X213367Y8420D01*
X213200Y7953D01*
X213158Y7533D01*
X213242Y7113D01*
X213367Y6833D01*
X213617Y6553D01*
X213908Y6366D01*
X214200Y6273D01*
X214492D01*
X214783Y6366D01*
X215033Y6506D01*
X215242Y6693D01*
G01X216467Y6273D02*
Y9073D01*
X217508D01*
X217842Y8933D01*
X218050Y8746D01*
X218133Y8373D01*
X218050Y8000D01*
X217800Y7766D01*
X217508Y7626D01*
X216467D01*
G01X217508D02*
X218133Y6273D01*
G01X220400D02*
X220067Y6320D01*
X219775Y6506D01*
X219525Y6786D01*
X219358Y7113D01*
X219275Y7486D01*
Y7860D01*
X219358Y8233D01*
X219525Y8560D01*
X219775Y8840D01*
X220067Y9026D01*
X220400Y9073D01*
X220733Y9026D01*
X221025Y8840D01*
X221275Y8560D01*
X221442Y8233D01*
X221525Y7860D01*
Y7486D01*
X221442Y7113D01*
X221275Y6786D01*
X221025Y6506D01*
X220733Y6320D01*
X220400Y6273D01*
G01X222625Y6646D02*
X222958Y6413D01*
X223333Y6273D01*
X223667D01*
X224000Y6413D01*
X224250Y6646D01*
X224375Y6973D01*
X224292Y7300D01*
X224083Y7580D01*
X223708Y7766D01*
X223208Y7860D01*
X222917Y8046D01*
X222792Y8373D01*
X222875Y8700D01*
X223083Y8933D01*
X223375Y9073D01*
X223667D01*
X223958Y8980D01*
X224208Y8746D01*
G01X225725Y6646D02*
X226058Y6413D01*
X226433Y6273D01*
X226767D01*
X227100Y6413D01*
X227350Y6646D01*
X227475Y6973D01*
X227392Y7300D01*
X227183Y7580D01*
X226808Y7766D01*
X226308Y7860D01*
X226017Y8046D01*
X225892Y8373D01*
X225975Y8700D01*
X226183Y8933D01*
X226475Y9073D01*
X226767D01*
X227058Y8980D01*
X227308Y8746D01*
G01X231925Y6646D02*
X232258Y6413D01*
X232633Y6273D01*
X232967D01*
X233300Y6413D01*
X233550Y6646D01*
X233675Y6973D01*
X233592Y7300D01*
X233383Y7580D01*
X233008Y7766D01*
X232508Y7860D01*
X232217Y8046D01*
X232092Y8373D01*
X232175Y8700D01*
X232383Y8933D01*
X232675Y9073D01*
X232967D01*
X233258Y8980D01*
X233508Y8746D01*
G01X236733Y6273D02*
X235067D01*
Y9073D01*
X236733D01*
G01X236067Y7720D02*
X235067D01*
G01X239917Y8840D02*
X239667Y8980D01*
X239375Y9073D01*
X239042D01*
X238667Y8933D01*
X238375Y8700D01*
X238167Y8420D01*
X238000Y7953D01*
X237958Y7533D01*
X238042Y7113D01*
X238167Y6833D01*
X238417Y6553D01*
X238708Y6366D01*
X239000Y6273D01*
X239292D01*
X239583Y6366D01*
X239833Y6506D01*
X240042Y6693D01*
G01X242100Y9073D02*
Y6273D01*
G01X241142Y9073D02*
X243058D01*
G01X244700D02*
X245700D01*
G01X245200D02*
Y6273D01*
G01X244700D02*
X245700D01*
G01X248300D02*
X247967Y6320D01*
X247675Y6506D01*
X247425Y6786D01*
X247258Y7113D01*
X247175Y7486D01*
Y7860D01*
X247258Y8233D01*
X247425Y8560D01*
X247675Y8840D01*
X247967Y9026D01*
X248300Y9073D01*
X248633Y9026D01*
X248925Y8840D01*
X249175Y8560D01*
X249342Y8233D01*
X249425Y7860D01*
Y7486D01*
X249342Y7113D01*
X249175Y6786D01*
X248925Y6506D01*
X248633Y6320D01*
X248300Y6273D01*
G01X250442D02*
Y9073D01*
X252358Y6273D01*
Y9073D01*
G01X258517Y8840D02*
X258267Y8980D01*
X257975Y9073D01*
X257642D01*
X257267Y8933D01*
X256975Y8700D01*
X256767Y8420D01*
X256600Y7953D01*
X256558Y7533D01*
X256642Y7113D01*
X256767Y6833D01*
X257017Y6553D01*
X257308Y6366D01*
X257600Y6273D01*
X257892D01*
X258183Y6366D01*
X258433Y6506D01*
X258642Y6693D01*
G01X259825Y6273D02*
Y9073D01*
G01X261575D02*
Y6273D01*
G01Y7673D02*
X259825D01*
G01X262758Y6273D02*
X263800Y9073D01*
X264842Y6273D01*
G01X264467Y7253D02*
X263133D01*
G01X266067Y6273D02*
Y9073D01*
X267108D01*
X267442Y8933D01*
X267650Y8746D01*
X267733Y8373D01*
X267650Y8000D01*
X267400Y7766D01*
X267108Y7626D01*
X266067D01*
G01X267108D02*
X267733Y6273D01*
G01X270000Y9073D02*
Y6273D01*
G01X269042Y9073D02*
X270958D01*
G01X189700Y5340D02*
X192200D01*
G01X192800D02*
X195300D01*
G01X195900D02*
X198400D01*
G01X199000D02*
X201500D01*
G01X202100D02*
X204600D01*
G01X205200D02*
X207700D01*
G01X208300D02*
X210800D01*
G01X211400D02*
X213900D01*
G01X214500D02*
X217000D01*
G01X217600D02*
X220100D01*
G01X220700D02*
X223200D01*
G01X223800D02*
X226300D01*
G01X226900D02*
X229400D01*
G01X230000D02*
X232500D01*
G01X233100D02*
X235600D01*
G01X236200D02*
X238700D01*
G01X239300D02*
X241800D01*
G01X242400D02*
X244900D01*
G01X245500D02*
X248000D01*
G01X248600D02*
X251100D01*
G01X251700D02*
X254200D01*
G01X254800D02*
X257300D01*
G01X257900D02*
X260400D01*
G01X261000D02*
X263500D01*
G01X264100D02*
X266600D01*
G01X267200D02*
X269700D01*
G01X270300D02*
X272800D01*
G01X198700Y4033D02*
Y1233D01*
G01X197742Y4033D02*
X199658D01*
G01X201800Y1233D02*
X201467Y1280D01*
X201175Y1466D01*
X200925Y1746D01*
X200758Y2073D01*
X200675Y2446D01*
Y2820D01*
X200758Y3193D01*
X200925Y3520D01*
X201175Y3800D01*
X201467Y3986D01*
X201800Y4033D01*
X202133Y3986D01*
X202425Y3800D01*
X202675Y3520D01*
X202842Y3193D01*
X202925Y2820D01*
Y2446D01*
X202842Y2073D01*
X202675Y1746D01*
X202425Y1466D01*
X202133Y1280D01*
X201800Y1233D01*
G01X204900Y4033D02*
Y1233D01*
G01X203942Y4033D02*
X205858D01*
G01X206958Y1233D02*
X208000Y4033D01*
X209042Y1233D01*
G01X208667Y2213D02*
X207333D01*
G01X210267Y4033D02*
Y1233D01*
X211933D01*
G01X217300Y4033D02*
Y1233D01*
G01X216342Y4033D02*
X218258D01*
G01X219525Y1233D02*
Y4033D01*
G01X221275D02*
Y1233D01*
G01Y2633D02*
X219525D01*
G01X223000Y4033D02*
X224000D01*
G01X223500D02*
Y1233D01*
G01X223000D02*
X224000D01*
G01X227517Y3800D02*
X227267Y3940D01*
X226975Y4033D01*
X226642D01*
X226267Y3893D01*
X225975Y3660D01*
X225767Y3380D01*
X225600Y2913D01*
X225558Y2493D01*
X225642Y2073D01*
X225767Y1793D01*
X226017Y1513D01*
X226308Y1326D01*
X226600Y1233D01*
X226892D01*
X227183Y1326D01*
X227433Y1466D01*
X227642Y1653D01*
G01X228783Y1233D02*
Y4033D01*
G01X230367D02*
X228783Y2306D01*
G01X230617Y1233D02*
X229492Y3100D01*
G01X231842Y1233D02*
Y4033D01*
X233758Y1233D01*
Y4033D01*
G01X236733Y1233D02*
X235067D01*
Y4033D01*
X236733D01*
G01X236067Y2680D02*
X235067D01*
G01X238125Y1606D02*
X238458Y1373D01*
X238833Y1233D01*
X239167D01*
X239500Y1373D01*
X239750Y1606D01*
X239875Y1933D01*
X239792Y2260D01*
X239583Y2540D01*
X239208Y2726D01*
X238708Y2820D01*
X238417Y3006D01*
X238292Y3333D01*
X238375Y3660D01*
X238583Y3893D01*
X238875Y4033D01*
X239167D01*
X239458Y3940D01*
X239708Y3706D01*
G01X241225Y1606D02*
X241558Y1373D01*
X241933Y1233D01*
X242267D01*
X242600Y1373D01*
X242850Y1606D01*
X242975Y1933D01*
X242892Y2260D01*
X242683Y2540D01*
X242308Y2726D01*
X241808Y2820D01*
X241517Y3006D01*
X241392Y3333D01*
X241475Y3660D01*
X241683Y3893D01*
X241975Y4033D01*
X242267D01*
X242558Y3940D01*
X242808Y3706D01*
G01X248300Y1233D02*
Y4033D01*
X247800Y3473D01*
G01Y1233D02*
X248800D01*
G01X251400Y1140D02*
X251317Y1186D01*
Y1280D01*
X251400Y1326D01*
X251483Y1280D01*
Y1186D01*
X251400Y1140D01*
G01X253583Y1653D02*
X253833Y1420D01*
X254125Y1280D01*
X254500Y1233D01*
X254875Y1326D01*
X255167Y1513D01*
X255375Y1840D01*
X255417Y2213D01*
X255333Y2586D01*
X255125Y2820D01*
X254833Y3006D01*
X254542Y3053D01*
X254250Y3006D01*
X253875Y2820D01*
X254000Y4033D01*
X255125D01*
G01X259617Y1233D02*
Y4033D01*
X260700Y1700D01*
X261783Y4033D01*
Y1233D01*
G01X262717D02*
Y4033D01*
X263800Y1700D01*
X264883Y4033D01*
Y1233D01*
G01X228750Y222999D02*
X225950D01*
X226510Y222499D01*
G01X228750D02*
Y223499D01*
G01X227817Y225557D02*
Y226641D01*
G01X226417Y228407D02*
X226137Y228657D01*
X225997Y228949D01*
X225950Y229282D01*
X226043Y229699D01*
X226277Y229991D01*
X226557Y230074D01*
X226837Y230032D01*
X227070Y229866D01*
X227537Y229032D01*
X227863Y228657D01*
X228330Y228407D01*
X228750Y228324D01*
Y230074D01*
G01X264767Y19639D02*
Y16839D01*
X266433D01*
G01X267908Y19172D02*
X268158Y19452D01*
X268450Y19592D01*
X268783Y19639D01*
X269200Y19546D01*
X269492Y19312D01*
X269575Y19032D01*
X269533Y18752D01*
X269367Y18519D01*
X268533Y18052D01*
X268158Y17726D01*
X267908Y17259D01*
X267825Y16839D01*
X269575D01*
G01X275233Y18332D02*
X275400Y18472D01*
X275525Y18706D01*
X275608Y19032D01*
X275525Y19312D01*
X275358Y19499D01*
X275067Y19639D01*
X273942D01*
Y16839D01*
X275317D01*
X275608Y17026D01*
X275775Y17306D01*
X275858Y17632D01*
X275775Y17959D01*
X275525Y18239D01*
X275233Y18332D01*
X273942D01*
G01X278000Y16839D02*
X277667Y16886D01*
X277375Y17072D01*
X277125Y17352D01*
X276958Y17679D01*
X276875Y18052D01*
Y18426D01*
X276958Y18799D01*
X277125Y19126D01*
X277375Y19406D01*
X277667Y19592D01*
X278000Y19639D01*
X278333Y19592D01*
X278625Y19406D01*
X278875Y19126D01*
X279042Y18799D01*
X279125Y18426D01*
Y18052D01*
X279042Y17679D01*
X278875Y17352D01*
X278625Y17072D01*
X278333Y16886D01*
X278000Y16839D01*
G01X281100Y19639D02*
Y16839D01*
G01X280142Y19639D02*
X282058D01*
G01X284200D02*
Y16839D01*
G01X283242Y19639D02*
X285158D01*
G01X287300Y16839D02*
X286967Y16886D01*
X286675Y17072D01*
X286425Y17352D01*
X286258Y17679D01*
X286175Y18052D01*
Y18426D01*
X286258Y18799D01*
X286425Y19126D01*
X286675Y19406D01*
X286967Y19592D01*
X287300Y19639D01*
X287633Y19592D01*
X287925Y19406D01*
X288175Y19126D01*
X288342Y18799D01*
X288425Y18426D01*
Y18052D01*
X288342Y17679D01*
X288175Y17352D01*
X287925Y17072D01*
X287633Y16886D01*
X287300Y16839D01*
G01X289317D02*
Y19639D01*
X290400Y17306D01*
X291483Y19639D01*
Y16839D01*
G01X297517Y19406D02*
X297267Y19546D01*
X296975Y19639D01*
X296642D01*
X296267Y19499D01*
X295975Y19266D01*
X295767Y18986D01*
X295600Y18519D01*
X295558Y18099D01*
X295642Y17679D01*
X295767Y17399D01*
X296017Y17119D01*
X296308Y16932D01*
X296600Y16839D01*
X296892D01*
X297183Y16932D01*
X297433Y17072D01*
X297642Y17259D01*
G01X299700Y16839D02*
X299367Y16886D01*
X299075Y17072D01*
X298825Y17352D01*
X298658Y17679D01*
X298575Y18052D01*
Y18426D01*
X298658Y18799D01*
X298825Y19126D01*
X299075Y19406D01*
X299367Y19592D01*
X299700Y19639D01*
X300033Y19592D01*
X300325Y19406D01*
X300575Y19126D01*
X300742Y18799D01*
X300825Y18426D01*
Y18052D01*
X300742Y17679D01*
X300575Y17352D01*
X300325Y17072D01*
X300033Y16886D01*
X299700Y16839D01*
G01X301842D02*
Y19639D01*
X303758Y16839D01*
Y19639D01*
G01X304983Y16839D02*
Y19639D01*
X305817D01*
X306150Y19499D01*
X306400Y19312D01*
X306608Y19032D01*
X306775Y18706D01*
X306817Y18239D01*
X306775Y17772D01*
X306608Y17446D01*
X306400Y17166D01*
X306150Y16979D01*
X305817Y16839D01*
X304983D01*
G01X308083Y19639D02*
Y17632D01*
X308250Y17212D01*
X308583Y16932D01*
X309000Y16839D01*
X309417Y16932D01*
X309750Y17212D01*
X309917Y17632D01*
Y19639D01*
G01X313017Y19406D02*
X312767Y19546D01*
X312475Y19639D01*
X312142D01*
X311767Y19499D01*
X311475Y19266D01*
X311267Y18986D01*
X311100Y18519D01*
X311058Y18099D01*
X311142Y17679D01*
X311267Y17399D01*
X311517Y17119D01*
X311808Y16932D01*
X312100Y16839D01*
X312392D01*
X312683Y16932D01*
X312933Y17072D01*
X313142Y17259D01*
G01X315200Y19639D02*
Y16839D01*
G01X314242Y19639D02*
X316158D01*
G01X318300Y16839D02*
X317967Y16886D01*
X317675Y17072D01*
X317425Y17352D01*
X317258Y17679D01*
X317175Y18052D01*
Y18426D01*
X317258Y18799D01*
X317425Y19126D01*
X317675Y19406D01*
X317967Y19592D01*
X318300Y19639D01*
X318633Y19592D01*
X318925Y19406D01*
X319175Y19126D01*
X319342Y18799D01*
X319425Y18426D01*
Y18052D01*
X319342Y17679D01*
X319175Y17352D01*
X318925Y17072D01*
X318633Y16886D01*
X318300Y16839D01*
G01X320567D02*
Y19639D01*
X321608D01*
X321942Y19499D01*
X322150Y19312D01*
X322233Y18939D01*
X322150Y18566D01*
X321900Y18332D01*
X321608Y18192D01*
X320567D01*
G01X321608D02*
X322233Y16839D01*
G01X327058Y17772D02*
X328142D01*
G01X334717Y19406D02*
X334467Y19546D01*
X334175Y19639D01*
X333842D01*
X333467Y19499D01*
X333175Y19266D01*
X332967Y18986D01*
X332800Y18519D01*
X332758Y18099D01*
X332842Y17679D01*
X332967Y17399D01*
X333217Y17119D01*
X333508Y16932D01*
X333800Y16839D01*
X334092D01*
X334383Y16932D01*
X334633Y17072D01*
X334842Y17259D01*
G01X336900Y16839D02*
X336567Y16886D01*
X336275Y17072D01*
X336025Y17352D01*
X335858Y17679D01*
X335775Y18052D01*
Y18426D01*
X335858Y18799D01*
X336025Y19126D01*
X336275Y19406D01*
X336567Y19592D01*
X336900Y19639D01*
X337233Y19592D01*
X337525Y19406D01*
X337775Y19126D01*
X337942Y18799D01*
X338025Y18426D01*
Y18052D01*
X337942Y17679D01*
X337775Y17352D01*
X337525Y17072D01*
X337233Y16886D01*
X336900Y16839D01*
G01X339167D02*
Y19639D01*
X340167D01*
X340500Y19499D01*
X340750Y19172D01*
X340833Y18799D01*
X340750Y18426D01*
X340542Y18146D01*
X340167Y18006D01*
X339167D01*
G01X342267Y16839D02*
Y19639D01*
X343267D01*
X343600Y19499D01*
X343850Y19172D01*
X343933Y18799D01*
X343850Y18426D01*
X343642Y18146D01*
X343267Y18006D01*
X342267D01*
G01X347033Y16839D02*
X345367D01*
Y19639D01*
X347033D01*
G01X346367Y18286D02*
X345367D01*
G01X348467Y16839D02*
Y19639D01*
X349508D01*
X349842Y19499D01*
X350050Y19312D01*
X350133Y18939D01*
X350050Y18566D01*
X349800Y18332D01*
X349508Y18192D01*
X348467D01*
G01X349508D02*
X350133Y16839D01*
G01X355500Y19639D02*
X355167Y19546D01*
X354917Y19312D01*
X354750Y19032D01*
X354625Y18659D01*
X354583Y18239D01*
X354625Y17819D01*
X354750Y17446D01*
X354917Y17166D01*
X355167Y16932D01*
X355500Y16839D01*
X355833Y16932D01*
X356083Y17166D01*
X356250Y17446D01*
X356375Y17819D01*
X356417Y18239D01*
X356375Y18659D01*
X356250Y19032D01*
X356083Y19312D01*
X355833Y19546D01*
X355500Y19639D01*
G01X358600Y16746D02*
X358517Y16792D01*
Y16886D01*
X358600Y16932D01*
X358683Y16886D01*
Y16792D01*
X358600Y16746D01*
G01X361700Y19639D02*
X361367Y19546D01*
X361117Y19312D01*
X360950Y19032D01*
X360825Y18659D01*
X360783Y18239D01*
X360825Y17819D01*
X360950Y17446D01*
X361117Y17166D01*
X361367Y16932D01*
X361700Y16839D01*
X362033Y16932D01*
X362283Y17166D01*
X362450Y17446D01*
X362575Y17819D01*
X362617Y18239D01*
X362575Y18659D01*
X362450Y19032D01*
X362283Y19312D01*
X362033Y19546D01*
X361700Y19639D01*
G01X364800Y16839D02*
Y19639D01*
X364300Y19079D01*
G01Y16839D02*
X365300D01*
G01X367900D02*
X368192Y16886D01*
X368525Y17026D01*
X368733Y17259D01*
X368817Y17586D01*
X368733Y17912D01*
X368483Y18192D01*
X368108Y18332D01*
X367692D01*
X367442Y18426D01*
X367233Y18659D01*
X367150Y18986D01*
X367275Y19312D01*
X367567Y19546D01*
X367900Y19639D01*
X368233Y19546D01*
X368525Y19312D01*
X368650Y18986D01*
X368567Y18659D01*
X368358Y18426D01*
X368108Y18332D01*
X367692D01*
X367317Y18192D01*
X367067Y17912D01*
X366983Y17586D01*
X367067Y17259D01*
X367275Y17026D01*
X367608Y16886D01*
X367900Y16839D01*
G01X373017D02*
Y19639D01*
X374100Y17306D01*
X375183Y19639D01*
Y16839D01*
G01X376117D02*
Y19639D01*
X377200Y17306D01*
X378283Y19639D01*
Y16839D01*
G01X270883Y13013D02*
X272717Y15066D01*
G01X271800Y15439D02*
Y12639D01*
G01X272717Y13013D02*
X270883Y15066D01*
G01X270550Y14039D02*
X273050D01*
G01X280225Y13479D02*
X280558Y13246D01*
X280933Y13106D01*
X281267D01*
X281600Y13246D01*
X281850Y13479D01*
X281975Y13806D01*
X281892Y14133D01*
X281683Y14413D01*
X281308Y14599D01*
X280808Y14693D01*
X280517Y14879D01*
X280392Y15206D01*
X280475Y15533D01*
X280683Y15766D01*
X280975Y15906D01*
X281267D01*
X281558Y15813D01*
X281808Y15579D01*
G01X283283Y15906D02*
Y13899D01*
X283450Y13479D01*
X283783Y13199D01*
X284200Y13106D01*
X284617Y13199D01*
X284950Y13479D01*
X285117Y13899D01*
Y15906D01*
G01X286467Y13106D02*
Y15906D01*
X287508D01*
X287842Y15766D01*
X288050Y15579D01*
X288133Y15206D01*
X288050Y14833D01*
X287800Y14599D01*
X287508Y14459D01*
X286467D01*
G01X287508D02*
X288133Y13106D01*
G01X289608D02*
Y15906D01*
X291192D01*
G01X290608Y14553D02*
X289608D01*
G01X292458Y13106D02*
X293500Y15906D01*
X294542Y13106D01*
G01X294167Y14086D02*
X292833D01*
G01X297517Y15673D02*
X297267Y15813D01*
X296975Y15906D01*
X296642D01*
X296267Y15766D01*
X295975Y15533D01*
X295767Y15253D01*
X295600Y14786D01*
X295558Y14366D01*
X295642Y13946D01*
X295767Y13666D01*
X296017Y13386D01*
X296308Y13199D01*
X296600Y13106D01*
X296892D01*
X297183Y13199D01*
X297433Y13339D01*
X297642Y13526D01*
G01X300533Y13106D02*
X298867D01*
Y15906D01*
X300533D01*
G01X299867Y14553D02*
X298867D01*
G01X305358Y14039D02*
X306442D01*
G01X311058Y13106D02*
X312100Y15906D01*
X313142Y13106D01*
G01X312767Y14086D02*
X311433D01*
G01X314700Y15906D02*
X315700D01*
G01X315200D02*
Y13106D01*
G01X314700D02*
X315700D01*
G01X317467D02*
Y15906D01*
X318508D01*
X318842Y15766D01*
X319050Y15579D01*
X319133Y15206D01*
X319050Y14833D01*
X318800Y14599D01*
X318508Y14459D01*
X317467D01*
G01X318508D02*
X319133Y13106D01*
G01X324500Y15906D02*
X324167Y15813D01*
X323917Y15579D01*
X323750Y15299D01*
X323625Y14926D01*
X323583Y14506D01*
X323625Y14086D01*
X323750Y13713D01*
X323917Y13433D01*
X324167Y13199D01*
X324500Y13106D01*
X324833Y13199D01*
X325083Y13433D01*
X325250Y13713D01*
X325375Y14086D01*
X325417Y14506D01*
X325375Y14926D01*
X325250Y15299D01*
X325083Y15579D01*
X324833Y15813D01*
X324500Y15906D01*
G01X329617Y13106D02*
Y15906D01*
X330700Y13573D01*
X331783Y15906D01*
Y13106D01*
G01X332717D02*
Y15906D01*
X333800Y13573D01*
X334883Y15906D01*
Y13106D01*
G01X270883Y118463D02*
X272717Y120516D01*
G01X271800Y120889D02*
Y118089D01*
G01X272717Y118463D02*
X270883Y120516D01*
G01X270550Y119489D02*
X273050D01*
G01X280183Y118556D02*
Y121356D01*
X281017D01*
X281350Y121216D01*
X281600Y121029D01*
X281808Y120749D01*
X281975Y120423D01*
X282017Y119956D01*
X281975Y119489D01*
X281808Y119163D01*
X281600Y118883D01*
X281350Y118696D01*
X281017Y118556D01*
X280183D01*
G01X283700Y121356D02*
X284700D01*
G01X284200D02*
Y118556D01*
G01X283700D02*
X284700D01*
G01X288133D02*
X286467D01*
Y121356D01*
X288133D01*
G01X287467Y120003D02*
X286467D01*
G01X289567Y121356D02*
Y118556D01*
X291233D01*
G01X294333D02*
X292667D01*
Y121356D01*
X294333D01*
G01X293667Y120003D02*
X292667D01*
G01X297517Y121123D02*
X297267Y121263D01*
X296975Y121356D01*
X296642D01*
X296267Y121216D01*
X295975Y120983D01*
X295767Y120703D01*
X295600Y120236D01*
X295558Y119816D01*
X295642Y119396D01*
X295767Y119116D01*
X296017Y118836D01*
X296308Y118649D01*
X296600Y118556D01*
X296892D01*
X297183Y118649D01*
X297433Y118789D01*
X297642Y118976D01*
G01X299700Y121356D02*
Y118556D01*
G01X298742Y121356D02*
X300658D01*
G01X301967Y118556D02*
Y121356D01*
X303008D01*
X303342Y121216D01*
X303550Y121029D01*
X303633Y120656D01*
X303550Y120283D01*
X303300Y120049D01*
X303008Y119909D01*
X301967D01*
G01X303008D02*
X303633Y118556D01*
G01X305400Y121356D02*
X306400D01*
G01X305900D02*
Y118556D01*
G01X305400D02*
X306400D01*
G01X309917Y121123D02*
X309667Y121263D01*
X309375Y121356D01*
X309042D01*
X308667Y121216D01*
X308375Y120983D01*
X308167Y120703D01*
X308000Y120236D01*
X307958Y119816D01*
X308042Y119396D01*
X308167Y119116D01*
X308417Y118836D01*
X308708Y118649D01*
X309000Y118556D01*
X309292D01*
X309583Y118649D01*
X309833Y118789D01*
X310042Y118976D01*
G01X314658Y119489D02*
X315742D01*
G01X320608Y118556D02*
Y121356D01*
X322192D01*
G01X321608Y120003D02*
X320608D01*
G01X323667Y118556D02*
Y121356D01*
X324708D01*
X325042Y121216D01*
X325250Y121029D01*
X325333Y120656D01*
X325250Y120283D01*
X325000Y120049D01*
X324708Y119909D01*
X323667D01*
G01X324708D02*
X325333Y118556D01*
G01X327058Y119489D02*
X328142D01*
G01X331200Y118556D02*
Y121356D01*
X329658Y119349D01*
X331742D01*
G01X336900Y118556D02*
Y121356D01*
X336400Y120796D01*
G01Y118556D02*
X337400D01*
G01X340000Y118463D02*
X339917Y118509D01*
Y118603D01*
X340000Y118649D01*
X340083Y118603D01*
Y118509D01*
X340000Y118463D01*
G01X343600Y118556D02*
Y121356D01*
X342058Y119349D01*
X344142D01*
G01X345408Y119723D02*
X345700Y120049D01*
X345950Y120236D01*
X346283Y120329D01*
X346575Y120236D01*
X346783Y120049D01*
X346950Y119769D01*
X346992Y119443D01*
X346950Y119163D01*
X346783Y118883D01*
X346533Y118649D01*
X346242Y118556D01*
X345908Y118649D01*
X345617Y118929D01*
X345450Y119349D01*
X345408Y119816D01*
X345492Y120423D01*
X345617Y120749D01*
X345825Y121076D01*
X346117Y121309D01*
X346408Y121356D01*
X346700Y121263D01*
X346908Y121029D01*
G01X349800Y118556D02*
Y121356D01*
X348258Y119349D01*
X350342D01*
G01X354417Y118556D02*
Y121356D01*
X355500Y119023D01*
X356583Y121356D01*
Y118556D01*
G01X357517D02*
Y121356D01*
X358600Y119023D01*
X359683Y121356D01*
Y118556D01*
G01X270883Y219789D02*
X272717Y221842D01*
G01X271800Y222215D02*
Y219415D01*
G01X272717Y219789D02*
X270883Y221842D01*
G01X270550Y220815D02*
X273050D01*
G01X280225Y220255D02*
X280558Y220022D01*
X280933Y219882D01*
X281267D01*
X281600Y220022D01*
X281850Y220255D01*
X281975Y220582D01*
X281892Y220909D01*
X281683Y221189D01*
X281308Y221375D01*
X280808Y221469D01*
X280517Y221655D01*
X280392Y221982D01*
X280475Y222309D01*
X280683Y222542D01*
X280975Y222682D01*
X281267D01*
X281558Y222589D01*
X281808Y222355D01*
G01X283283Y222682D02*
Y220675D01*
X283450Y220255D01*
X283783Y219975D01*
X284200Y219882D01*
X284617Y219975D01*
X284950Y220255D01*
X285117Y220675D01*
Y222682D01*
G01X286467Y219882D02*
Y222682D01*
X287508D01*
X287842Y222542D01*
X288050Y222355D01*
X288133Y221982D01*
X288050Y221609D01*
X287800Y221375D01*
X287508Y221235D01*
X286467D01*
G01X287508D02*
X288133Y219882D01*
G01X289608D02*
Y222682D01*
X291192D01*
G01X290608Y221329D02*
X289608D01*
G01X292458Y219882D02*
X293500Y222682D01*
X294542Y219882D01*
G01X294167Y220862D02*
X292833D01*
G01X297517Y222449D02*
X297267Y222589D01*
X296975Y222682D01*
X296642D01*
X296267Y222542D01*
X295975Y222309D01*
X295767Y222029D01*
X295600Y221562D01*
X295558Y221142D01*
X295642Y220722D01*
X295767Y220442D01*
X296017Y220162D01*
X296308Y219975D01*
X296600Y219882D01*
X296892D01*
X297183Y219975D01*
X297433Y220115D01*
X297642Y220302D01*
G01X300533Y219882D02*
X298867D01*
Y222682D01*
X300533D01*
G01X299867Y221329D02*
X298867D01*
G01X305358Y220815D02*
X306442D01*
G01X311058Y219882D02*
X312100Y222682D01*
X313142Y219882D01*
G01X312767Y220862D02*
X311433D01*
G01X314700Y222682D02*
X315700D01*
G01X315200D02*
Y219882D01*
G01X314700D02*
X315700D01*
G01X317467D02*
Y222682D01*
X318508D01*
X318842Y222542D01*
X319050Y222355D01*
X319133Y221982D01*
X319050Y221609D01*
X318800Y221375D01*
X318508Y221235D01*
X317467D01*
G01X318508D02*
X319133Y219882D01*
G01X324500Y222682D02*
X324167Y222589D01*
X323917Y222355D01*
X323750Y222075D01*
X323625Y221702D01*
X323583Y221282D01*
X323625Y220862D01*
X323750Y220489D01*
X323917Y220209D01*
X324167Y219975D01*
X324500Y219882D01*
X324833Y219975D01*
X325083Y220209D01*
X325250Y220489D01*
X325375Y220862D01*
X325417Y221282D01*
X325375Y221702D01*
X325250Y222075D01*
X325083Y222355D01*
X324833Y222589D01*
X324500Y222682D01*
G01X329617Y219882D02*
Y222682D01*
X330700Y220349D01*
X331783Y222682D01*
Y219882D01*
G01X332717D02*
Y222682D01*
X333800Y220349D01*
X334883Y222682D01*
Y219882D01*
G01X264767Y218016D02*
Y215216D01*
X266433D01*
G01X268700D02*
Y218016D01*
X268200Y217456D01*
G01Y215216D02*
X269200D01*
G01X274900Y218016D02*
Y215216D01*
G01X273942Y218016D02*
X275858D01*
G01X278000Y215216D02*
X277667Y215263D01*
X277375Y215449D01*
X277125Y215729D01*
X276958Y216056D01*
X276875Y216429D01*
Y216803D01*
X276958Y217176D01*
X277125Y217503D01*
X277375Y217783D01*
X277667Y217969D01*
X278000Y218016D01*
X278333Y217969D01*
X278625Y217783D01*
X278875Y217503D01*
X279042Y217176D01*
X279125Y216803D01*
Y216429D01*
X279042Y216056D01*
X278875Y215729D01*
X278625Y215449D01*
X278333Y215263D01*
X278000Y215216D01*
G01X280267D02*
Y218016D01*
X281267D01*
X281600Y217876D01*
X281850Y217549D01*
X281933Y217176D01*
X281850Y216803D01*
X281642Y216523D01*
X281267Y216383D01*
X280267D01*
G01X288217Y217783D02*
X287967Y217923D01*
X287675Y218016D01*
X287342D01*
X286967Y217876D01*
X286675Y217643D01*
X286467Y217363D01*
X286300Y216896D01*
X286258Y216476D01*
X286342Y216056D01*
X286467Y215776D01*
X286717Y215496D01*
X287008Y215309D01*
X287300Y215216D01*
X287592D01*
X287883Y215309D01*
X288133Y215449D01*
X288342Y215636D01*
G01X290400Y215216D02*
X290067Y215263D01*
X289775Y215449D01*
X289525Y215729D01*
X289358Y216056D01*
X289275Y216429D01*
Y216803D01*
X289358Y217176D01*
X289525Y217503D01*
X289775Y217783D01*
X290067Y217969D01*
X290400Y218016D01*
X290733Y217969D01*
X291025Y217783D01*
X291275Y217503D01*
X291442Y217176D01*
X291525Y216803D01*
Y216429D01*
X291442Y216056D01*
X291275Y215729D01*
X291025Y215449D01*
X290733Y215263D01*
X290400Y215216D01*
G01X292542D02*
Y218016D01*
X294458Y215216D01*
Y218016D01*
G01X295683Y215216D02*
Y218016D01*
X296517D01*
X296850Y217876D01*
X297100Y217689D01*
X297308Y217409D01*
X297475Y217083D01*
X297517Y216616D01*
X297475Y216149D01*
X297308Y215823D01*
X297100Y215543D01*
X296850Y215356D01*
X296517Y215216D01*
X295683D01*
G01X298783Y218016D02*
Y216009D01*
X298950Y215589D01*
X299283Y215309D01*
X299700Y215216D01*
X300117Y215309D01*
X300450Y215589D01*
X300617Y216009D01*
Y218016D01*
G01X303717Y217783D02*
X303467Y217923D01*
X303175Y218016D01*
X302842D01*
X302467Y217876D01*
X302175Y217643D01*
X301967Y217363D01*
X301800Y216896D01*
X301758Y216476D01*
X301842Y216056D01*
X301967Y215776D01*
X302217Y215496D01*
X302508Y215309D01*
X302800Y215216D01*
X303092D01*
X303383Y215309D01*
X303633Y215449D01*
X303842Y215636D01*
G01X305900Y218016D02*
Y215216D01*
G01X304942Y218016D02*
X306858D01*
G01X309000Y215216D02*
X308667Y215263D01*
X308375Y215449D01*
X308125Y215729D01*
X307958Y216056D01*
X307875Y216429D01*
Y216803D01*
X307958Y217176D01*
X308125Y217503D01*
X308375Y217783D01*
X308667Y217969D01*
X309000Y218016D01*
X309333Y217969D01*
X309625Y217783D01*
X309875Y217503D01*
X310042Y217176D01*
X310125Y216803D01*
Y216429D01*
X310042Y216056D01*
X309875Y215729D01*
X309625Y215449D01*
X309333Y215263D01*
X309000Y215216D01*
G01X311267D02*
Y218016D01*
X312308D01*
X312642Y217876D01*
X312850Y217689D01*
X312933Y217316D01*
X312850Y216943D01*
X312600Y216709D01*
X312308Y216569D01*
X311267D01*
G01X312308D02*
X312933Y215216D01*
G01X317758Y216149D02*
X318842D01*
G01X325417Y217783D02*
X325167Y217923D01*
X324875Y218016D01*
X324542D01*
X324167Y217876D01*
X323875Y217643D01*
X323667Y217363D01*
X323500Y216896D01*
X323458Y216476D01*
X323542Y216056D01*
X323667Y215776D01*
X323917Y215496D01*
X324208Y215309D01*
X324500Y215216D01*
X324792D01*
X325083Y215309D01*
X325333Y215449D01*
X325542Y215636D01*
G01X327600Y215216D02*
X327267Y215263D01*
X326975Y215449D01*
X326725Y215729D01*
X326558Y216056D01*
X326475Y216429D01*
Y216803D01*
X326558Y217176D01*
X326725Y217503D01*
X326975Y217783D01*
X327267Y217969D01*
X327600Y218016D01*
X327933Y217969D01*
X328225Y217783D01*
X328475Y217503D01*
X328642Y217176D01*
X328725Y216803D01*
Y216429D01*
X328642Y216056D01*
X328475Y215729D01*
X328225Y215449D01*
X327933Y215263D01*
X327600Y215216D01*
G01X329867D02*
Y218016D01*
X330867D01*
X331200Y217876D01*
X331450Y217549D01*
X331533Y217176D01*
X331450Y216803D01*
X331242Y216523D01*
X330867Y216383D01*
X329867D01*
G01X332967Y215216D02*
Y218016D01*
X333967D01*
X334300Y217876D01*
X334550Y217549D01*
X334633Y217176D01*
X334550Y216803D01*
X334342Y216523D01*
X333967Y216383D01*
X332967D01*
G01X337733Y215216D02*
X336067D01*
Y218016D01*
X337733D01*
G01X337067Y216663D02*
X336067D01*
G01X339167Y215216D02*
Y218016D01*
X340208D01*
X340542Y217876D01*
X340750Y217689D01*
X340833Y217316D01*
X340750Y216943D01*
X340500Y216709D01*
X340208Y216569D01*
X339167D01*
G01X340208D02*
X340833Y215216D01*
G01X346200Y218016D02*
X345867Y217923D01*
X345617Y217689D01*
X345450Y217409D01*
X345325Y217036D01*
X345283Y216616D01*
X345325Y216196D01*
X345450Y215823D01*
X345617Y215543D01*
X345867Y215309D01*
X346200Y215216D01*
X346533Y215309D01*
X346783Y215543D01*
X346950Y215823D01*
X347075Y216196D01*
X347117Y216616D01*
X347075Y217036D01*
X346950Y217409D01*
X346783Y217689D01*
X346533Y217923D01*
X346200Y218016D01*
G01X349300Y215123D02*
X349217Y215169D01*
Y215263D01*
X349300Y215309D01*
X349383Y215263D01*
Y215169D01*
X349300Y215123D01*
G01X352400Y218016D02*
X352067Y217923D01*
X351817Y217689D01*
X351650Y217409D01*
X351525Y217036D01*
X351483Y216616D01*
X351525Y216196D01*
X351650Y215823D01*
X351817Y215543D01*
X352067Y215309D01*
X352400Y215216D01*
X352733Y215309D01*
X352983Y215543D01*
X353150Y215823D01*
X353275Y216196D01*
X353317Y216616D01*
X353275Y217036D01*
X353150Y217409D01*
X352983Y217689D01*
X352733Y217923D01*
X352400Y218016D01*
G01X355500Y215216D02*
Y218016D01*
X355000Y217456D01*
G01Y215216D02*
X356000D01*
G01X358600D02*
X358892Y215263D01*
X359225Y215403D01*
X359433Y215636D01*
X359517Y215963D01*
X359433Y216289D01*
X359183Y216569D01*
X358808Y216709D01*
X358392D01*
X358142Y216803D01*
X357933Y217036D01*
X357850Y217363D01*
X357975Y217689D01*
X358267Y217923D01*
X358600Y218016D01*
X358933Y217923D01*
X359225Y217689D01*
X359350Y217363D01*
X359267Y217036D01*
X359058Y216803D01*
X358808Y216709D01*
X358392D01*
X358017Y216569D01*
X357767Y216289D01*
X357683Y215963D01*
X357767Y215636D01*
X357975Y215403D01*
X358308Y215263D01*
X358600Y215216D01*
G01X363717D02*
Y218016D01*
X364800Y215683D01*
X365883Y218016D01*
Y215216D01*
G01X366817D02*
Y218016D01*
X367900Y215683D01*
X368983Y218016D01*
Y215216D01*
M02*
