G04 ================== begin FILE IDENTIFICATION RECORD ==================*
G04 Layout Name:  C:/Users/kellyy/Desktop/P1/allegro/OSCILATOR4.brd*
G04 Film Name:    SPTOP*
G04 File Format:  Gerber RS274X*
G04 File Origin:  Cadence Allegro 17.2-S025*
G04 Origin Date:  Tue Dec 19 00:27:30 2023*
G04 *
G04 Layer:  VIA CLASS/PASTEMASK_TOP*
G04 Layer:  PIN/PASTEMASK_TOP*
G04 Layer:  DRC ERROR CLASS/PASTEMASK_TOP*
G04 *
G04 Offset:    (0.00 0.00)*
G04 Mirror:    No*
G04 Mode:      Positive*
G04 Rotation:  0*
G04 FullContactRelief:  No*
G04 UndefLineWidth:     0.10*
G04 ================== end FILE IDENTIFICATION RECORD ====================*
%FSLAX25Y25*MOIN*%
%IR0*IPPOS*OFA0.00000B0.00000*MIA0B0*SFA1.00000B1.00000*%
%ADD10C,.03*%
%ADD11R,.04X.04*%
%ADD13R,.041X.041*%
%ADD12R,.05X.05*%
%ADD16R,.031X.04*%
%ADD17R,.04X.031*%
%ADD14R,.068X.041*%
%ADD15R,.041X.068*%
%ADD18R,.038X.066*%
%LPD*%
G75*
G54D10*
X20000Y20000D03*
X137500Y137500D03*
G54D11*
X13900Y47100D03*
X22300Y32600D03*
X13900D03*
Y55500D03*
X13300Y89600D03*
Y98000D03*
X16900Y142900D03*
X25300D03*
X45900Y40800D03*
X37500D03*
X62400Y40200D03*
X62500Y29700D03*
X37500Y28300D03*
X45900D03*
X57900Y65500D03*
X45500Y56500D03*
X37100D03*
X42200Y75700D03*
X33800D03*
X37200Y136600D03*
X45600D03*
X70800Y40200D03*
X70900Y29700D03*
X85400Y29500D03*
X66100Y78900D03*
X66300Y65500D03*
X85100Y78500D03*
X66100Y87300D03*
X84100Y88400D03*
Y96800D03*
X66200Y101800D03*
X74600D03*
X78200Y141300D03*
Y132900D03*
X119500Y48000D03*
X93800Y29500D03*
X93500Y78500D03*
X102700Y88800D03*
Y97200D03*
X121200Y139300D03*
X118100Y115900D03*
X121200Y147700D03*
X127900Y48000D03*
X126500Y115900D03*
G54D12*
X13900Y78300D03*
Y68300D03*
X147000Y44900D03*
Y76500D03*
Y65900D03*
Y55500D03*
Y86500D03*
Y107700D03*
Y97100D03*
G54D13*
X13445Y108400D03*
X22500D03*
X56200Y91045D03*
Y100100D03*
X129300Y23545D03*
Y32600D03*
G54D14*
X17972Y130644D03*
G54D15*
X33956Y95572D03*
X107056Y28072D03*
G54D16*
X58600Y134100D03*
X41500Y114400D03*
X45600Y122500D03*
X37400D03*
X61000Y123100D03*
X56900Y115000D03*
X88300Y48300D03*
X84200Y40200D03*
X62700Y142200D03*
X66800Y134100D03*
X65100Y115000D03*
X92400Y40200D03*
X118400Y65000D03*
X94400Y107600D03*
X102600D03*
X98500Y115700D03*
X122500Y56900D03*
X126600Y65000D03*
G54D17*
X85300Y61200D03*
X93400Y57100D03*
Y65300D03*
G54D18*
X89100Y126600D03*
X89500Y139700D03*
X97000Y126600D03*
X97400Y139700D03*
M02*
