G04 ================== begin FILE IDENTIFICATION RECORD ==================*
G04 Layout Name:  C:/Users/kellyy/Desktop/P1/allegro/OSCILATOR4.brd*
G04 Film Name:    SSTOP*
G04 File Format:  Gerber RS274X*
G04 File Origin:  Cadence Allegro 17.2-S025*
G04 Origin Date:  Mon Dec 18 20:30:12 2023*
G04 *
G04 Layer:  REF DES/SILKSCREEN_TOP*
G04 Layer:  PACKAGE GEOMETRY/SILKSCREEN_TOP*
G04 Layer:  BOARD GEOMETRY/SILKSCREEN_TOP*
G04 *
G04 Offset:    (0.00 0.00)*
G04 Mirror:    No*
G04 Mode:      Positive*
G04 Rotation:  0*
G04 FullContactRelief:  No*
G04 UndefLineWidth:     0.10*
G04 ================== end FILE IDENTIFICATION RECORD ====================*
%FSLAX25Y25*MOIN*%
%IR0*IPPOS*OFA0.00000B0.00000*MIA0B0*SFA1.00000B1.00000*%
%ADD10C,.006*%
%ADD11C,.00787*%
G75*
%LPD*%
G75*
G54D10*
G01X9267Y9167D02*
X9017Y9307D01*
X8725Y9400D01*
X8392D01*
X8017Y9260D01*
X7725Y9027D01*
X7517Y8747D01*
X7350Y8280D01*
X7308Y7860D01*
X7392Y7440D01*
X7517Y7160D01*
X7767Y6880D01*
X8058Y6693D01*
X8350Y6600D01*
X8642D01*
X8933Y6693D01*
X9183Y6833D01*
X9392Y7020D01*
G01X10742Y6600D02*
Y9400D01*
G01Y8047D02*
X10950Y8280D01*
X11158Y8420D01*
X11492Y8467D01*
X11742Y8420D01*
X12033Y8233D01*
X12158Y7953D01*
Y6600D01*
G01X13925Y7860D02*
X15258D01*
X15133Y8187D01*
X14925Y8373D01*
X14633Y8467D01*
X14342Y8420D01*
X14092Y8280D01*
X13925Y7953D01*
X13842Y7673D01*
Y7393D01*
X13925Y7113D01*
X14133Y6833D01*
X14383Y6647D01*
X14675Y6600D01*
X14967Y6693D01*
X15258Y6973D01*
G01X17650Y6600D02*
Y9400D01*
G01X21500Y6600D02*
Y8467D01*
G01Y8140D02*
X21333Y8327D01*
X21083Y8420D01*
X20792Y8467D01*
X20500Y8373D01*
X20250Y8187D01*
X20083Y7907D01*
X20000Y7533D01*
X20083Y7160D01*
X20250Y6880D01*
X20500Y6693D01*
X20792Y6600D01*
X21083Y6647D01*
X21333Y6787D01*
X21500Y6973D01*
G01X23267Y6600D02*
Y8467D01*
G01Y8093D02*
X23475Y8280D01*
X23683Y8420D01*
X23975Y8467D01*
X24183Y8420D01*
X24433Y8280D01*
G01X26242Y8467D02*
Y7160D01*
X26408Y6833D01*
X26658Y6647D01*
X26950Y6600D01*
X27242Y6647D01*
X27492Y6833D01*
X27658Y7160D01*
G01Y6600D02*
Y8467D01*
G01X32108Y9400D02*
X33150Y6600D01*
X34192Y9400D01*
G01X36250Y6600D02*
Y9400D01*
G01X40100Y6600D02*
Y8467D01*
G01Y8140D02*
X39933Y8327D01*
X39683Y8420D01*
X39392Y8467D01*
X39100Y8373D01*
X38850Y8187D01*
X38683Y7907D01*
X38600Y7533D01*
X38683Y7160D01*
X38850Y6880D01*
X39100Y6693D01*
X39392Y6600D01*
X39683Y6647D01*
X39933Y6787D01*
X40100Y6973D01*
G01X43200Y9400D02*
Y6600D01*
G01Y7020D02*
X43033Y6787D01*
X42783Y6647D01*
X42492Y6600D01*
X42158Y6693D01*
X41908Y6927D01*
X41742Y7207D01*
X41700Y7533D01*
X41742Y7860D01*
X41908Y8140D01*
X42158Y8373D01*
X42492Y8467D01*
X42783Y8420D01*
X42992Y8327D01*
X43200Y8140D01*
G01X47608Y6600D02*
X48650Y9400D01*
X49692Y6600D01*
G01X49317Y7580D02*
X47983D01*
G01X51042Y6600D02*
Y8467D01*
G01Y8000D02*
X51208Y8233D01*
X51458Y8420D01*
X51792Y8467D01*
X52083Y8420D01*
X52333Y8233D01*
X52458Y7907D01*
Y6600D01*
G01X55600Y9400D02*
Y6600D01*
G01Y7020D02*
X55433Y6787D01*
X55183Y6647D01*
X54892Y6600D01*
X54558Y6693D01*
X54308Y6927D01*
X54142Y7207D01*
X54100Y7533D01*
X54142Y7860D01*
X54308Y8140D01*
X54558Y8373D01*
X54892Y8467D01*
X55183Y8420D01*
X55392Y8327D01*
X55600Y8140D01*
G01X57367Y6600D02*
Y8467D01*
G01Y8093D02*
X57575Y8280D01*
X57783Y8420D01*
X58075Y8467D01*
X58283Y8420D01*
X58533Y8280D01*
G01X60425Y7860D02*
X61758D01*
X61633Y8187D01*
X61425Y8373D01*
X61133Y8467D01*
X60842Y8420D01*
X60592Y8280D01*
X60425Y7953D01*
X60342Y7673D01*
Y7393D01*
X60425Y7113D01*
X60633Y6833D01*
X60883Y6647D01*
X61175Y6600D01*
X61467Y6693D01*
X61758Y6973D01*
G01X64150Y8467D02*
Y6600D01*
G01Y9213D02*
X64067Y9260D01*
Y9353D01*
X64150Y9400D01*
X64233Y9353D01*
Y9260D01*
X64150Y9213D01*
G01X72617Y6600D02*
Y9400D01*
X73617D01*
X73950Y9260D01*
X74200Y8933D01*
X74283Y8560D01*
X74200Y8187D01*
X73992Y7907D01*
X73617Y7767D01*
X72617D01*
G01X75967Y6600D02*
Y8467D01*
G01Y8093D02*
X76175Y8280D01*
X76383Y8420D01*
X76675Y8467D01*
X76883Y8420D01*
X77133Y8280D01*
G01X79650Y6600D02*
X79400Y6647D01*
X79150Y6833D01*
X78983Y7160D01*
X78900Y7533D01*
X78983Y7907D01*
X79150Y8233D01*
X79400Y8420D01*
X79650Y8467D01*
X79900Y8420D01*
X80150Y8233D01*
X80317Y7907D01*
X80358Y7533D01*
X80317Y7160D01*
X80150Y6833D01*
X79900Y6647D01*
X79650Y6600D01*
G01X82750Y8467D02*
Y6600D01*
G01Y9213D02*
X82667Y9260D01*
Y9353D01*
X82750Y9400D01*
X82833Y9353D01*
Y9260D01*
X82750Y9213D01*
G01X85225Y7860D02*
X86558D01*
X86433Y8187D01*
X86225Y8373D01*
X85933Y8467D01*
X85642Y8420D01*
X85392Y8280D01*
X85225Y7953D01*
X85142Y7673D01*
Y7393D01*
X85225Y7113D01*
X85433Y6833D01*
X85683Y6647D01*
X85975Y6600D01*
X86267Y6693D01*
X86558Y6973D01*
G01X89617Y8233D02*
X89325Y8420D01*
X89075Y8467D01*
X88742Y8373D01*
X88492Y8187D01*
X88325Y7860D01*
X88283Y7533D01*
X88325Y7207D01*
X88492Y6927D01*
X88742Y6693D01*
X89075Y6600D01*
X89367Y6693D01*
X89617Y6880D01*
G01X92050Y9400D02*
Y6600D01*
G01X91467Y8467D02*
X92633D01*
G01X97333Y6600D02*
Y9400D01*
X98167D01*
X98500Y9260D01*
X98750Y9073D01*
X98958Y8793D01*
X99125Y8467D01*
X99167Y8000D01*
X99125Y7533D01*
X98958Y7207D01*
X98750Y6927D01*
X98500Y6740D01*
X98167Y6600D01*
X97333D01*
G01X102267Y9167D02*
X102017Y9307D01*
X101725Y9400D01*
X101392D01*
X101017Y9260D01*
X100725Y9027D01*
X100517Y8747D01*
X100350Y8280D01*
X100308Y7860D01*
X100392Y7440D01*
X100517Y7160D01*
X100767Y6880D01*
X101058Y6693D01*
X101350Y6600D01*
X101642D01*
X101933Y6693D01*
X102183Y6833D01*
X102392Y7020D01*
G01X103408Y6600D02*
X104450Y9400D01*
X105492Y6600D01*
G01X105117Y7580D02*
X103783D01*
G01X108383Y6600D02*
X106717D01*
Y9400D01*
X108383D01*
G01X107717Y8047D02*
X106717D01*
G01X110650Y6600D02*
Y9400D01*
X110150Y8840D01*
G01Y6600D02*
X111150D01*
G01X120200Y8000D02*
X121033D01*
Y7160D01*
X120783Y6880D01*
X120492Y6693D01*
X120075Y6600D01*
X119658Y6693D01*
X119367Y6880D01*
X119117Y7160D01*
X118950Y7487D01*
X118867Y7860D01*
Y8187D01*
X118950Y8467D01*
X119117Y8793D01*
X119367Y9073D01*
X119617Y9260D01*
X119950Y9400D01*
X120242D01*
X120575Y9307D01*
X120825Y9120D01*
G01X122467Y6600D02*
Y8467D01*
G01Y8093D02*
X122675Y8280D01*
X122883Y8420D01*
X123175Y8467D01*
X123383Y8420D01*
X123633Y8280D01*
G01X125442Y8467D02*
Y7160D01*
X125608Y6833D01*
X125858Y6647D01*
X126150Y6600D01*
X126442Y6647D01*
X126692Y6833D01*
X126858Y7160D01*
G01Y6600D02*
Y8467D01*
G01X128500Y5667D02*
Y8467D01*
G01Y8047D02*
X128708Y8280D01*
X128917Y8420D01*
X129250Y8467D01*
X129542Y8420D01*
X129833Y8187D01*
X129958Y7860D01*
X130000Y7533D01*
X129958Y7207D01*
X129833Y6880D01*
X129583Y6693D01*
X129250Y6600D01*
X128958Y6647D01*
X128667Y6787D01*
X128500Y6973D01*
G01X133100Y6600D02*
Y8467D01*
G01Y8140D02*
X132933Y8327D01*
X132683Y8420D01*
X132392Y8467D01*
X132100Y8373D01*
X131850Y8187D01*
X131683Y7907D01*
X131600Y7533D01*
X131683Y7160D01*
X131850Y6880D01*
X132100Y6693D01*
X132392Y6600D01*
X132683Y6647D01*
X132933Y6787D01*
X133100Y6973D01*
G01X139050Y6600D02*
Y9400D01*
X137508Y7393D01*
X139592D01*
G01X140733Y7160D02*
X140983Y6833D01*
X141317Y6647D01*
X141692Y6600D01*
X142025Y6647D01*
X142358Y6880D01*
X142567Y7160D01*
X142608Y7440D01*
X142525Y7767D01*
X142233Y8000D01*
X141942Y8093D01*
X141567D01*
G01X141942D02*
X142192Y8233D01*
X142400Y8467D01*
X142483Y8747D01*
X142400Y9027D01*
X142192Y9260D01*
X141817Y9400D01*
X141442Y9353D01*
X141067Y9167D01*
G01X143833Y7160D02*
X144083Y6833D01*
X144417Y6647D01*
X144792Y6600D01*
X145125Y6647D01*
X145458Y6880D01*
X145667Y7160D01*
X145708Y7440D01*
X145625Y7767D01*
X145333Y8000D01*
X145042Y8093D01*
X144667D01*
G01X145042D02*
X145292Y8233D01*
X145500Y8467D01*
X145583Y8747D01*
X145500Y9027D01*
X145292Y9260D01*
X144917Y9400D01*
X144542Y9353D01*
X144167Y9167D01*
G01X148183Y8093D02*
X148350Y8233D01*
X148475Y8467D01*
X148558Y8793D01*
X148475Y9073D01*
X148308Y9260D01*
X148017Y9400D01*
X146892D01*
Y6600D01*
X148267D01*
X148558Y6787D01*
X148725Y7067D01*
X148808Y7393D01*
X148725Y7720D01*
X148475Y8000D01*
X148183Y8093D01*
X146892D01*
G01X17650Y59300D02*
Y43300D01*
G01D02*
X10150D01*
G01D02*
Y59300D01*
G01X10617Y37200D02*
Y40000D01*
X11658D01*
X11992Y39860D01*
X12200Y39673D01*
X12283Y39300D01*
X12200Y38927D01*
X11950Y38693D01*
X11658Y38553D01*
X10617D01*
G01X11658D02*
X12283Y37200D01*
G01X14550D02*
Y40000D01*
X14050Y39440D01*
G01Y37200D02*
X15050D01*
G01X17650D02*
Y40000D01*
X17150Y39440D01*
G01Y37200D02*
X18150D01*
G01X10100Y36350D02*
X26100D01*
G01D02*
Y28850D01*
G01D02*
X10100D01*
G01D02*
Y36350D01*
G01X19717Y67060D02*
X19925Y66780D01*
X20175Y66593D01*
X20467Y66500D01*
X20800Y66593D01*
X21050Y66780D01*
X21300Y67060D01*
X21383Y67433D01*
Y69300D01*
G01X22858Y68833D02*
X23108Y69113D01*
X23400Y69253D01*
X23733Y69300D01*
X24150Y69207D01*
X24442Y68973D01*
X24525Y68693D01*
X24483Y68413D01*
X24317Y68180D01*
X23483Y67713D01*
X23108Y67387D01*
X22858Y66920D01*
X22775Y66500D01*
X24525D01*
G01X19217Y53200D02*
Y56000D01*
X20258D01*
X20592Y55860D01*
X20800Y55673D01*
X20883Y55300D01*
X20800Y54927D01*
X20550Y54693D01*
X20258Y54553D01*
X19217D01*
G01X20258D02*
X20883Y53200D01*
G01X22442Y53527D02*
X22733Y53293D01*
X23067Y53200D01*
X23400Y53293D01*
X23692Y53573D01*
X23900Y53993D01*
X23983Y54413D01*
Y54927D01*
X23900Y55347D01*
X23692Y55720D01*
X23442Y55907D01*
X23150Y56000D01*
X22817Y55907D01*
X22567Y55720D01*
X22400Y55440D01*
X22317Y55067D01*
X22400Y54740D01*
X22608Y54413D01*
X22858Y54227D01*
X23150Y54180D01*
X23483Y54273D01*
X23733Y54507D01*
X23983Y54927D01*
G01X10150Y59300D02*
X17650D01*
G01X30000Y79450D02*
X46000D01*
G01Y71950D02*
X30000D01*
G01D02*
Y79450D01*
G01X18417Y99200D02*
Y102000D01*
X19458D01*
X19792Y101860D01*
X20000Y101673D01*
X20083Y101300D01*
X20000Y100927D01*
X19750Y100693D01*
X19458Y100553D01*
X18417D01*
G01X19458D02*
X20083Y99200D01*
G01X22350D02*
Y102000D01*
X21850Y101440D01*
G01Y99200D02*
X22850D01*
G01X17050Y101800D02*
Y85800D01*
G01D02*
X9550D01*
G01D02*
Y101800D01*
G01D02*
X17050D01*
G01X30950Y115800D02*
X30617Y115847D01*
X30325Y116033D01*
X30075Y116313D01*
X29908Y116640D01*
X29825Y117013D01*
Y117387D01*
X29908Y117760D01*
X30075Y118087D01*
X30325Y118367D01*
X30617Y118553D01*
X30950Y118600D01*
X31283Y118553D01*
X31575Y118367D01*
X31825Y118087D01*
X31992Y117760D01*
X32075Y117387D01*
Y117013D01*
X31992Y116640D01*
X31825Y116313D01*
X31575Y116033D01*
X31283Y115847D01*
X30950Y115800D01*
G01X31283Y116547D02*
X31783Y115800D01*
G01X34050D02*
Y118600D01*
X33550Y118040D01*
G01Y115800D02*
X34550D01*
G01X29100Y139150D02*
X13100D01*
G01D02*
Y146650D01*
G01X29100D02*
Y139150D01*
G01X23617Y129800D02*
Y132600D01*
X24617D01*
X24950Y132460D01*
X25200Y132133D01*
X25283Y131760D01*
X25200Y131387D01*
X24992Y131107D01*
X24617Y130967D01*
X23617D01*
G01X27550Y129800D02*
X27217Y129847D01*
X26925Y130033D01*
X26675Y130313D01*
X26508Y130640D01*
X26425Y131013D01*
Y131387D01*
X26508Y131760D01*
X26675Y132087D01*
X26925Y132367D01*
X27217Y132553D01*
X27550Y132600D01*
X27883Y132553D01*
X28175Y132367D01*
X28425Y132087D01*
X28592Y131760D01*
X28675Y131387D01*
Y131013D01*
X28592Y130640D01*
X28425Y130313D01*
X28175Y130033D01*
X27883Y129847D01*
X27550Y129800D01*
G01X30650Y132600D02*
Y129800D01*
G01X29692Y132600D02*
X31608D01*
G01X33750Y129800D02*
Y132600D01*
X33250Y132040D01*
G01Y129800D02*
X34250D01*
G01X14867Y150367D02*
X14617Y150507D01*
X14325Y150600D01*
X13992D01*
X13617Y150460D01*
X13325Y150227D01*
X13117Y149947D01*
X12950Y149480D01*
X12908Y149060D01*
X12992Y148640D01*
X13117Y148360D01*
X13367Y148080D01*
X13658Y147893D01*
X13950Y147800D01*
X14242D01*
X14533Y147893D01*
X14783Y148033D01*
X14992Y148220D01*
G01X17050Y147800D02*
Y150600D01*
X16550Y150040D01*
G01Y147800D02*
X17550D01*
G01X13100Y146650D02*
X29100D01*
G01X42667Y23167D02*
X42417Y23307D01*
X42125Y23400D01*
X41792D01*
X41417Y23260D01*
X41125Y23027D01*
X40917Y22747D01*
X40750Y22280D01*
X40708Y21860D01*
X40792Y21440D01*
X40917Y21160D01*
X41167Y20880D01*
X41458Y20693D01*
X41750Y20600D01*
X42042D01*
X42333Y20693D01*
X42583Y20833D01*
X42792Y21020D01*
G01X43933D02*
X44183Y20787D01*
X44475Y20647D01*
X44850Y20600D01*
X45225Y20693D01*
X45517Y20880D01*
X45725Y21207D01*
X45767Y21580D01*
X45683Y21953D01*
X45475Y22187D01*
X45183Y22373D01*
X44892Y22420D01*
X44600Y22373D01*
X44225Y22187D01*
X44350Y23400D01*
X45475D01*
G01X42117Y45700D02*
Y48500D01*
X43158D01*
X43492Y48360D01*
X43700Y48173D01*
X43783Y47800D01*
X43700Y47427D01*
X43450Y47193D01*
X43158Y47053D01*
X42117D01*
G01X43158D02*
X43783Y45700D01*
G01X46050D02*
Y48500D01*
X45550Y47940D01*
G01Y45700D02*
X46550D01*
G01X48233Y46260D02*
X48483Y45933D01*
X48817Y45747D01*
X49192Y45700D01*
X49525Y45747D01*
X49858Y45980D01*
X50067Y46260D01*
X50108Y46540D01*
X50025Y46867D01*
X49733Y47100D01*
X49442Y47193D01*
X49067D01*
G01X49442D02*
X49692Y47333D01*
X49900Y47567D01*
X49983Y47847D01*
X49900Y48127D01*
X49692Y48360D01*
X49317Y48500D01*
X48942Y48453D01*
X48567Y48267D01*
G01X33700Y44550D02*
X49700D01*
G01D02*
Y37050D01*
G01D02*
X33700D01*
G01D02*
Y44550D01*
G01X58600Y43950D02*
X74600D01*
G01Y36450D02*
X58600D01*
G01D02*
Y43950D01*
G01X74700Y25950D02*
X58700D01*
G01D02*
Y33450D01*
G01D02*
X74700D01*
G01X49700Y24550D02*
X33700D01*
G01D02*
Y32050D01*
G01D02*
X49700D01*
G01D02*
Y24550D01*
G01X47317Y64100D02*
Y66900D01*
X48358D01*
X48692Y66760D01*
X48900Y66573D01*
X48983Y66200D01*
X48900Y65827D01*
X48650Y65593D01*
X48358Y65453D01*
X47317D01*
G01X48358D02*
X48983Y64100D01*
G01X50458Y66433D02*
X50708Y66713D01*
X51000Y66853D01*
X51333Y66900D01*
X51750Y66807D01*
X52042Y66573D01*
X52125Y66293D01*
X52083Y66013D01*
X51917Y65780D01*
X51083Y65313D01*
X50708Y64987D01*
X50458Y64520D01*
X50375Y64100D01*
X52125D01*
G01X54100Y69250D02*
X70100D01*
G01Y61750D02*
X54100D01*
G01D02*
Y69250D01*
G01X33717Y61800D02*
Y64600D01*
X34758D01*
X35092Y64460D01*
X35300Y64273D01*
X35383Y63900D01*
X35300Y63527D01*
X35050Y63293D01*
X34758Y63153D01*
X33717D01*
G01X34758D02*
X35383Y61800D01*
G01X37650D02*
Y64600D01*
X37150Y64040D01*
G01Y61800D02*
X38150D01*
G01X40750Y64600D02*
X40417Y64507D01*
X40167Y64273D01*
X40000Y63993D01*
X39875Y63620D01*
X39833Y63200D01*
X39875Y62780D01*
X40000Y62407D01*
X40167Y62127D01*
X40417Y61893D01*
X40750Y61800D01*
X41083Y61893D01*
X41333Y62127D01*
X41500Y62407D01*
X41625Y62780D01*
X41667Y63200D01*
X41625Y63620D01*
X41500Y63993D01*
X41333Y64273D01*
X41083Y64507D01*
X40750Y64600D01*
G01X33300Y60250D02*
X49300D01*
G01D02*
Y52750D01*
G01D02*
X33300D01*
G01D02*
Y60250D01*
G01X41967Y83167D02*
X41717Y83307D01*
X41425Y83400D01*
X41092D01*
X40717Y83260D01*
X40425Y83027D01*
X40217Y82747D01*
X40050Y82280D01*
X40008Y81860D01*
X40092Y81440D01*
X40217Y81160D01*
X40467Y80880D01*
X40758Y80693D01*
X41050Y80600D01*
X41342D01*
X41633Y80693D01*
X41883Y80833D01*
X42092Y81020D01*
G01X43358Y82933D02*
X43608Y83213D01*
X43900Y83353D01*
X44233Y83400D01*
X44650Y83307D01*
X44942Y83073D01*
X45025Y82793D01*
X44983Y82513D01*
X44817Y82280D01*
X43983Y81813D01*
X43608Y81487D01*
X43358Y81020D01*
X43275Y80600D01*
X45025D01*
G01X46000Y79450D02*
Y71950D01*
G01X35317Y106400D02*
Y109200D01*
X36317D01*
X36650Y109060D01*
X36900Y108733D01*
X36983Y108360D01*
X36900Y107987D01*
X36692Y107707D01*
X36317Y107567D01*
X35317D01*
G01X39250Y106400D02*
X38917Y106447D01*
X38625Y106633D01*
X38375Y106913D01*
X38208Y107240D01*
X38125Y107613D01*
Y107987D01*
X38208Y108360D01*
X38375Y108687D01*
X38625Y108967D01*
X38917Y109153D01*
X39250Y109200D01*
X39583Y109153D01*
X39875Y108967D01*
X40125Y108687D01*
X40292Y108360D01*
X40375Y107987D01*
Y107613D01*
X40292Y107240D01*
X40125Y106913D01*
X39875Y106633D01*
X39583Y106447D01*
X39250Y106400D01*
G01X42350Y109200D02*
Y106400D01*
G01X41392Y109200D02*
X43308D01*
G01X44658Y108733D02*
X44908Y109013D01*
X45200Y109153D01*
X45533Y109200D01*
X45950Y109107D01*
X46242Y108873D01*
X46325Y108593D01*
X46283Y108313D01*
X46117Y108080D01*
X45283Y107613D01*
X44908Y107287D01*
X44658Y106820D01*
X44575Y106400D01*
X46325D01*
G01X49400Y132850D02*
X33400D01*
G01Y132750D02*
Y140250D01*
G01X49400Y140350D02*
Y132850D01*
G01X35317Y141500D02*
Y144300D01*
X36358D01*
X36692Y144160D01*
X36900Y143973D01*
X36983Y143600D01*
X36900Y143227D01*
X36650Y142993D01*
X36358Y142853D01*
X35317D01*
G01X36358D02*
X36983Y141500D01*
G01X38458Y142667D02*
X38750Y142993D01*
X39000Y143180D01*
X39333Y143273D01*
X39625Y143180D01*
X39833Y142993D01*
X40000Y142713D01*
X40042Y142387D01*
X40000Y142107D01*
X39833Y141827D01*
X39583Y141593D01*
X39292Y141500D01*
X38958Y141593D01*
X38667Y141873D01*
X38500Y142293D01*
X38458Y142760D01*
X38542Y143367D01*
X38667Y143693D01*
X38875Y144020D01*
X39167Y144253D01*
X39458Y144300D01*
X39750Y144207D01*
X39958Y143973D01*
G01X33400Y140350D02*
X49400D01*
G01X54533Y145300D02*
Y148100D01*
X55367D01*
X55700Y147960D01*
X55950Y147773D01*
X56158Y147493D01*
X56325Y147167D01*
X56367Y146700D01*
X56325Y146233D01*
X56158Y145907D01*
X55950Y145627D01*
X55700Y145440D01*
X55367Y145300D01*
X54533D01*
G01X57758Y148100D02*
X59342D01*
X57758Y145300D01*
X59342D01*
G01X61017Y21000D02*
Y23800D01*
X62058D01*
X62392Y23660D01*
X62600Y23473D01*
X62683Y23100D01*
X62600Y22727D01*
X62350Y22493D01*
X62058Y22353D01*
X61017D01*
G01X62058D02*
X62683Y21000D01*
G01X64950D02*
Y23800D01*
X64450Y23240D01*
G01Y21000D02*
X65450D01*
G01X67258Y22167D02*
X67550Y22493D01*
X67800Y22680D01*
X68133Y22773D01*
X68425Y22680D01*
X68633Y22493D01*
X68800Y22213D01*
X68842Y21887D01*
X68800Y21607D01*
X68633Y21327D01*
X68383Y21093D01*
X68092Y21000D01*
X67758Y21093D01*
X67467Y21373D01*
X67300Y21793D01*
X67258Y22260D01*
X67342Y22867D01*
X67467Y23193D01*
X67675Y23520D01*
X67967Y23753D01*
X68258Y23800D01*
X68550Y23707D01*
X68758Y23473D01*
G01X62817Y45600D02*
Y48400D01*
X63858D01*
X64192Y48260D01*
X64400Y48073D01*
X64483Y47700D01*
X64400Y47327D01*
X64150Y47093D01*
X63858Y46953D01*
X62817D01*
G01X63858D02*
X64483Y45600D01*
G01X66750D02*
Y48400D01*
X66250Y47840D01*
G01Y45600D02*
X67250D01*
G01X70350D02*
Y48400D01*
X68808Y46393D01*
X70892D01*
G01X74600Y43950D02*
Y36450D01*
G01X74700Y33450D02*
Y25950D01*
G01X85867Y24267D02*
X85617Y24407D01*
X85325Y24500D01*
X84992D01*
X84617Y24360D01*
X84325Y24127D01*
X84117Y23847D01*
X83950Y23380D01*
X83908Y22960D01*
X83992Y22540D01*
X84117Y22260D01*
X84367Y21980D01*
X84658Y21793D01*
X84950Y21700D01*
X85242D01*
X85533Y21793D01*
X85783Y21933D01*
X85992Y22120D01*
G01X87258Y22867D02*
X87550Y23193D01*
X87800Y23380D01*
X88133Y23473D01*
X88425Y23380D01*
X88633Y23193D01*
X88800Y22913D01*
X88842Y22587D01*
X88800Y22307D01*
X88633Y22027D01*
X88383Y21793D01*
X88092Y21700D01*
X87758Y21793D01*
X87467Y22073D01*
X87300Y22493D01*
X87258Y22960D01*
X87342Y23567D01*
X87467Y23893D01*
X87675Y24220D01*
X87967Y24453D01*
X88258Y24500D01*
X88550Y24407D01*
X88758Y24173D01*
G01X97600Y25750D02*
X81600D01*
G01D02*
Y33250D01*
G01D02*
X97600D01*
G01X63917Y71200D02*
Y74000D01*
X64958D01*
X65292Y73860D01*
X65500Y73673D01*
X65583Y73300D01*
X65500Y72927D01*
X65250Y72693D01*
X64958Y72553D01*
X63917D01*
G01X64958D02*
X65583Y71200D01*
G01X66933Y71760D02*
X67183Y71433D01*
X67517Y71247D01*
X67892Y71200D01*
X68225Y71247D01*
X68558Y71480D01*
X68767Y71760D01*
X68808Y72040D01*
X68725Y72367D01*
X68433Y72600D01*
X68142Y72693D01*
X67767D01*
G01X68142D02*
X68392Y72833D01*
X68600Y73067D01*
X68683Y73347D01*
X68600Y73627D01*
X68392Y73860D01*
X68017Y74000D01*
X67642Y73953D01*
X67267Y73767D01*
G01X62350Y75100D02*
Y91100D01*
G01X69850D02*
Y75100D01*
G01D02*
X62350D01*
G01X70100Y69250D02*
Y61750D01*
G01X97300Y74750D02*
X81300D01*
G01D02*
Y82250D01*
G01X62350Y91100D02*
X69850D01*
G01X89517Y88200D02*
Y91000D01*
X90558D01*
X90892Y90860D01*
X91100Y90673D01*
X91183Y90300D01*
X91100Y89927D01*
X90850Y89693D01*
X90558Y89553D01*
X89517D01*
G01X90558D02*
X91183Y88200D01*
G01X93950D02*
Y91000D01*
X92408Y88993D01*
X94492D01*
G01X87850Y100600D02*
Y84600D01*
G01D02*
X80350D01*
G01D02*
Y100600D01*
G01D02*
X87850D01*
G01X81300Y82250D02*
X97300D01*
G01X69367Y109267D02*
X69117Y109407D01*
X68825Y109500D01*
X68492D01*
X68117Y109360D01*
X67825Y109127D01*
X67617Y108847D01*
X67450Y108380D01*
X67408Y107960D01*
X67492Y107540D01*
X67617Y107260D01*
X67867Y106980D01*
X68158Y106793D01*
X68450Y106700D01*
X68742D01*
X69033Y106793D01*
X69283Y106933D01*
X69492Y107120D01*
G01X72050Y106700D02*
Y109500D01*
X70508Y107493D01*
X72592D01*
G01X78400Y98050D02*
X62400D01*
G01D02*
Y105550D01*
G01D02*
X78400D01*
G01D02*
Y98050D01*
G01X76317Y124900D02*
Y127700D01*
X77358D01*
X77692Y127560D01*
X77900Y127373D01*
X77983Y127000D01*
X77900Y126627D01*
X77650Y126393D01*
X77358Y126253D01*
X76317D01*
G01X77358D02*
X77983Y124900D01*
G01X79333Y125320D02*
X79583Y125087D01*
X79875Y124947D01*
X80250Y124900D01*
X80625Y124993D01*
X80917Y125180D01*
X81125Y125507D01*
X81167Y125880D01*
X81083Y126253D01*
X80875Y126487D01*
X80583Y126673D01*
X80292Y126720D01*
X80000Y126673D01*
X79625Y126487D01*
X79750Y127700D01*
X80875D01*
G01X74450Y129100D02*
Y145100D01*
G01X81950D02*
Y129100D01*
G01D02*
X74450D01*
G01X69750Y115000D02*
X69417Y115047D01*
X69125Y115233D01*
X68875Y115513D01*
X68708Y115840D01*
X68625Y116213D01*
Y116587D01*
X68708Y116960D01*
X68875Y117287D01*
X69125Y117567D01*
X69417Y117753D01*
X69750Y117800D01*
X70083Y117753D01*
X70375Y117567D01*
X70625Y117287D01*
X70792Y116960D01*
X70875Y116587D01*
Y116213D01*
X70792Y115840D01*
X70625Y115513D01*
X70375Y115233D01*
X70083Y115047D01*
X69750Y115000D01*
G01X70083Y115747D02*
X70583Y115000D01*
G01X72058Y117333D02*
X72308Y117613D01*
X72600Y117753D01*
X72933Y117800D01*
X73350Y117707D01*
X73642Y117473D01*
X73725Y117193D01*
X73683Y116913D01*
X73517Y116680D01*
X72683Y116213D01*
X72308Y115887D01*
X72058Y115420D01*
X71975Y115000D01*
X73725D01*
G01X85200Y131750D02*
X101000D01*
G01Y121450D02*
X85200D01*
G01D02*
Y131750D01*
G01X101300Y134550D02*
X85500D01*
G01D02*
Y138850D01*
G01D02*
X84650Y139700D01*
G01D02*
X85500Y140550D01*
G01X74450Y145100D02*
X81950D01*
G01X85500Y140550D02*
Y144850D01*
G01D02*
X101300D01*
G01X113317Y13800D02*
Y16600D01*
X114317D01*
X114650Y16460D01*
X114900Y16133D01*
X114983Y15760D01*
X114900Y15387D01*
X114692Y15107D01*
X114317Y14967D01*
X113317D01*
G01X117250Y13800D02*
X116917Y13847D01*
X116625Y14033D01*
X116375Y14313D01*
X116208Y14640D01*
X116125Y15013D01*
Y15387D01*
X116208Y15760D01*
X116375Y16087D01*
X116625Y16367D01*
X116917Y16553D01*
X117250Y16600D01*
X117583Y16553D01*
X117875Y16367D01*
X118125Y16087D01*
X118292Y15760D01*
X118375Y15387D01*
Y15013D01*
X118292Y14640D01*
X118125Y14313D01*
X117875Y14033D01*
X117583Y13847D01*
X117250Y13800D01*
G01X120350Y16600D02*
Y13800D01*
G01X119392Y16600D02*
X121308D01*
G01X122533Y14360D02*
X122783Y14033D01*
X123117Y13847D01*
X123492Y13800D01*
X123825Y13847D01*
X124158Y14080D01*
X124367Y14360D01*
X124408Y14640D01*
X124325Y14967D01*
X124033Y15200D01*
X123742Y15293D01*
X123367D01*
G01X123742D02*
X123992Y15433D01*
X124200Y15667D01*
X124283Y15947D01*
X124200Y16227D01*
X123992Y16460D01*
X123617Y16600D01*
X123242Y16553D01*
X122867Y16367D01*
G01X105917Y51000D02*
Y53800D01*
X106958D01*
X107292Y53660D01*
X107500Y53473D01*
X107583Y53100D01*
X107500Y52727D01*
X107250Y52493D01*
X106958Y52353D01*
X105917D01*
G01X106958D02*
X107583Y51000D01*
G01X109850D02*
Y53800D01*
X109350Y53240D01*
G01Y51000D02*
X110350D01*
G01X112033Y51420D02*
X112283Y51187D01*
X112575Y51047D01*
X112950Y51000D01*
X113325Y51093D01*
X113617Y51280D01*
X113825Y51607D01*
X113867Y51980D01*
X113783Y52353D01*
X113575Y52587D01*
X113283Y52773D01*
X112992Y52820D01*
X112700Y52773D01*
X112325Y52587D01*
X112450Y53800D01*
X113575D01*
G01X131700Y44250D02*
X115700D01*
G01D02*
Y51750D01*
G01X97050Y42900D02*
X96717Y42947D01*
X96425Y43133D01*
X96175Y43413D01*
X96008Y43740D01*
X95925Y44113D01*
Y44487D01*
X96008Y44860D01*
X96175Y45187D01*
X96425Y45467D01*
X96717Y45653D01*
X97050Y45700D01*
X97383Y45653D01*
X97675Y45467D01*
X97925Y45187D01*
X98092Y44860D01*
X98175Y44487D01*
Y44113D01*
X98092Y43740D01*
X97925Y43413D01*
X97675Y43133D01*
X97383Y42947D01*
X97050Y42900D01*
G01X97383Y43647D02*
X97883Y42900D01*
G01X99358Y44067D02*
X99650Y44393D01*
X99900Y44580D01*
X100233Y44673D01*
X100525Y44580D01*
X100733Y44393D01*
X100900Y44113D01*
X100942Y43787D01*
X100900Y43507D01*
X100733Y43227D01*
X100483Y42993D01*
X100192Y42900D01*
X99858Y42993D01*
X99567Y43273D01*
X99400Y43693D01*
X99358Y44160D01*
X99442Y44767D01*
X99567Y45093D01*
X99775Y45420D01*
X100067Y45653D01*
X100358Y45700D01*
X100650Y45607D01*
X100858Y45373D01*
G01X97600Y33250D02*
Y25750D01*
G01X99417Y76400D02*
Y79200D01*
X100458D01*
X100792Y79060D01*
X101000Y78873D01*
X101083Y78500D01*
X101000Y78127D01*
X100750Y77893D01*
X100458Y77753D01*
X99417D01*
G01X100458D02*
X101083Y76400D01*
G01X103350D02*
Y79200D01*
X102850Y78640D01*
G01Y76400D02*
X103850D01*
G01X105658Y78733D02*
X105908Y79013D01*
X106200Y79153D01*
X106533Y79200D01*
X106950Y79107D01*
X107242Y78873D01*
X107325Y78593D01*
X107283Y78313D01*
X107117Y78080D01*
X106283Y77613D01*
X105908Y77287D01*
X105658Y76820D01*
X105575Y76400D01*
X107325D01*
G01X97300Y82250D02*
Y74750D01*
G01X115700Y51750D02*
X131700D01*
G01X119550Y70300D02*
X119217Y70347D01*
X118925Y70533D01*
X118675Y70813D01*
X118508Y71140D01*
X118425Y71513D01*
Y71887D01*
X118508Y72260D01*
X118675Y72587D01*
X118925Y72867D01*
X119217Y73053D01*
X119550Y73100D01*
X119883Y73053D01*
X120175Y72867D01*
X120425Y72587D01*
X120592Y72260D01*
X120675Y71887D01*
Y71513D01*
X120592Y71140D01*
X120425Y70813D01*
X120175Y70533D01*
X119883Y70347D01*
X119550Y70300D01*
G01X119883Y71047D02*
X120383Y70300D01*
G01X123150D02*
Y73100D01*
X121608Y71093D01*
X123692D01*
G01X98450Y59900D02*
X98117Y59947D01*
X97825Y60133D01*
X97575Y60413D01*
X97408Y60740D01*
X97325Y61113D01*
Y61487D01*
X97408Y61860D01*
X97575Y62187D01*
X97825Y62467D01*
X98117Y62653D01*
X98450Y62700D01*
X98783Y62653D01*
X99075Y62467D01*
X99325Y62187D01*
X99492Y61860D01*
X99575Y61487D01*
Y61113D01*
X99492Y60740D01*
X99325Y60413D01*
X99075Y60133D01*
X98783Y59947D01*
X98450Y59900D01*
G01X98783Y60647D02*
X99283Y59900D01*
G01X100633Y60320D02*
X100883Y60087D01*
X101175Y59947D01*
X101550Y59900D01*
X101925Y59993D01*
X102217Y60180D01*
X102425Y60507D01*
X102467Y60880D01*
X102383Y61253D01*
X102175Y61487D01*
X101883Y61673D01*
X101592Y61720D01*
X101300Y61673D01*
X100925Y61487D01*
X101050Y62700D01*
X102175D01*
G01X107250Y110000D02*
X106917Y110047D01*
X106625Y110233D01*
X106375Y110513D01*
X106208Y110840D01*
X106125Y111213D01*
Y111587D01*
X106208Y111960D01*
X106375Y112287D01*
X106625Y112567D01*
X106917Y112753D01*
X107250Y112800D01*
X107583Y112753D01*
X107875Y112567D01*
X108125Y112287D01*
X108292Y111960D01*
X108375Y111587D01*
Y111213D01*
X108292Y110840D01*
X108125Y110513D01*
X107875Y110233D01*
X107583Y110047D01*
X107250Y110000D01*
G01X107583Y110747D02*
X108083Y110000D01*
G01X109433Y110560D02*
X109683Y110233D01*
X110017Y110047D01*
X110392Y110000D01*
X110725Y110047D01*
X111058Y110280D01*
X111267Y110560D01*
X111308Y110840D01*
X111225Y111167D01*
X110933Y111400D01*
X110642Y111493D01*
X110267D01*
G01X110642D02*
X110892Y111633D01*
X111100Y111867D01*
X111183Y112147D01*
X111100Y112427D01*
X110892Y112660D01*
X110517Y112800D01*
X110142Y112753D01*
X109767Y112567D01*
G01X109567Y95567D02*
X109317Y95707D01*
X109025Y95800D01*
X108692D01*
X108317Y95660D01*
X108025Y95427D01*
X107817Y95147D01*
X107650Y94680D01*
X107608Y94260D01*
X107692Y93840D01*
X107817Y93560D01*
X108067Y93280D01*
X108358Y93093D01*
X108650Y93000D01*
X108942D01*
X109233Y93093D01*
X109483Y93233D01*
X109692Y93420D01*
G01X110833Y93560D02*
X111083Y93233D01*
X111417Y93047D01*
X111792Y93000D01*
X112125Y93047D01*
X112458Y93280D01*
X112667Y93560D01*
X112708Y93840D01*
X112625Y94167D01*
X112333Y94400D01*
X112042Y94493D01*
X111667D01*
G01X112042D02*
X112292Y94633D01*
X112500Y94867D01*
X112583Y95147D01*
X112500Y95427D01*
X112292Y95660D01*
X111917Y95800D01*
X111542Y95753D01*
X111167Y95567D01*
G01X106450Y101000D02*
Y85000D01*
G01D02*
X98950D01*
G01D02*
Y101000D01*
G01D02*
X106450D01*
G01X124950Y135500D02*
X117450D01*
G01D02*
Y151500D01*
G01X115317Y120700D02*
Y123500D01*
X116358D01*
X116692Y123360D01*
X116900Y123173D01*
X116983Y122800D01*
X116900Y122427D01*
X116650Y122193D01*
X116358Y122053D01*
X115317D01*
G01X116358D02*
X116983Y120700D01*
G01X119250D02*
X119542Y120747D01*
X119875Y120887D01*
X120083Y121120D01*
X120167Y121447D01*
X120083Y121773D01*
X119833Y122053D01*
X119458Y122193D01*
X119042D01*
X118792Y122287D01*
X118583Y122520D01*
X118500Y122847D01*
X118625Y123173D01*
X118917Y123407D01*
X119250Y123500D01*
X119583Y123407D01*
X119875Y123173D01*
X120000Y122847D01*
X119917Y122520D01*
X119708Y122287D01*
X119458Y122193D01*
X119042D01*
X118667Y122053D01*
X118417Y121773D01*
X118333Y121447D01*
X118417Y121120D01*
X118625Y120887D01*
X118958Y120747D01*
X119250Y120700D01*
G01X130300Y112150D02*
X114300D01*
G01D02*
Y119650D01*
G01D02*
X130300D01*
G01X103733Y121200D02*
Y124000D01*
X104567D01*
X104900Y123860D01*
X105150Y123673D01*
X105358Y123393D01*
X105525Y123067D01*
X105567Y122600D01*
X105525Y122133D01*
X105358Y121807D01*
X105150Y121527D01*
X104900Y121340D01*
X104567Y121200D01*
X103733D01*
G01X107750D02*
Y124000D01*
X107250Y123440D01*
G01Y121200D02*
X108250D01*
G01X101000Y131750D02*
Y127450D01*
G01D02*
X101850Y126600D01*
G01D02*
X101000Y125750D01*
G01D02*
Y121450D01*
G01X102933Y133400D02*
Y136200D01*
X103767D01*
X104100Y136060D01*
X104350Y135873D01*
X104558Y135593D01*
X104725Y135267D01*
X104767Y134800D01*
X104725Y134333D01*
X104558Y134007D01*
X104350Y133727D01*
X104100Y133540D01*
X103767Y133400D01*
X102933D01*
G01X106158Y135733D02*
X106408Y136013D01*
X106700Y136153D01*
X107033Y136200D01*
X107450Y136107D01*
X107742Y135873D01*
X107825Y135593D01*
X107783Y135313D01*
X107617Y135080D01*
X106783Y134613D01*
X106408Y134287D01*
X106158Y133820D01*
X106075Y133400D01*
X107825D01*
G01X101300Y144850D02*
Y134550D01*
G01X117450Y151500D02*
X124950D01*
G01X145117Y36260D02*
X145325Y35980D01*
X145575Y35793D01*
X145867Y35700D01*
X146200Y35793D01*
X146450Y35980D01*
X146700Y36260D01*
X146783Y36633D01*
Y38500D01*
G01X148967Y35700D02*
X149050Y36307D01*
X149175Y36820D01*
X149342Y37287D01*
X149550Y37800D01*
X149883Y38500D01*
X148217D01*
G01X131700Y51750D02*
Y44250D01*
G01X135617Y79760D02*
X135825Y79480D01*
X136075Y79293D01*
X136367Y79200D01*
X136700Y79293D01*
X136950Y79480D01*
X137200Y79760D01*
X137283Y80133D01*
Y82000D01*
G01X139550Y79200D02*
Y82000D01*
X139050Y81440D01*
G01Y79200D02*
X140050D01*
G01X135817Y65160D02*
X136025Y64880D01*
X136275Y64693D01*
X136567Y64600D01*
X136900Y64693D01*
X137150Y64880D01*
X137400Y65160D01*
X137483Y65533D01*
Y67400D01*
G01X140250Y64600D02*
Y67400D01*
X138708Y65393D01*
X140792D01*
G01X136217Y53060D02*
X136425Y52780D01*
X136675Y52593D01*
X136967Y52500D01*
X137300Y52593D01*
X137550Y52780D01*
X137800Y53060D01*
X137883Y53433D01*
Y55300D01*
G01X139233Y53060D02*
X139483Y52733D01*
X139817Y52547D01*
X140192Y52500D01*
X140525Y52547D01*
X140858Y52780D01*
X141067Y53060D01*
X141108Y53340D01*
X141025Y53667D01*
X140733Y53900D01*
X140442Y53993D01*
X140067D01*
G01X140442D02*
X140692Y54133D01*
X140900Y54367D01*
X140983Y54647D01*
X140900Y54927D01*
X140692Y55160D01*
X140317Y55300D01*
X139942Y55253D01*
X139567Y55067D01*
G01X135917Y109960D02*
X136125Y109680D01*
X136375Y109493D01*
X136667Y109400D01*
X137000Y109493D01*
X137250Y109680D01*
X137500Y109960D01*
X137583Y110333D01*
Y112200D01*
G01X138933Y109820D02*
X139183Y109587D01*
X139475Y109447D01*
X139850Y109400D01*
X140225Y109493D01*
X140517Y109680D01*
X140725Y110007D01*
X140767Y110380D01*
X140683Y110753D01*
X140475Y110987D01*
X140183Y111173D01*
X139892Y111220D01*
X139600Y111173D01*
X139225Y110987D01*
X139350Y112200D01*
X140475D01*
G01X135417Y100560D02*
X135625Y100280D01*
X135875Y100093D01*
X136167Y100000D01*
X136500Y100093D01*
X136750Y100280D01*
X137000Y100560D01*
X137083Y100933D01*
Y102800D01*
G01X138558Y101167D02*
X138850Y101493D01*
X139100Y101680D01*
X139433Y101773D01*
X139725Y101680D01*
X139933Y101493D01*
X140100Y101213D01*
X140142Y100887D01*
X140100Y100607D01*
X139933Y100327D01*
X139683Y100093D01*
X139392Y100000D01*
X139058Y100093D01*
X138767Y100373D01*
X138600Y100793D01*
X138558Y101260D01*
X138642Y101867D01*
X138767Y102193D01*
X138975Y102520D01*
X139267Y102753D01*
X139558Y102800D01*
X139850Y102707D01*
X140058Y102473D01*
G01X124950Y151500D02*
Y135500D01*
G01X130300Y119650D02*
Y112150D01*
G01X127117Y146500D02*
Y149300D01*
X128158D01*
X128492Y149160D01*
X128700Y148973D01*
X128783Y148600D01*
X128700Y148227D01*
X128450Y147993D01*
X128158Y147853D01*
X127117D01*
G01X128158D02*
X128783Y146500D01*
G01X130967D02*
X131050Y147107D01*
X131175Y147620D01*
X131342Y148087D01*
X131550Y148600D01*
X131883Y149300D01*
X130217D01*
G54D11*
G01X8900Y63300D02*
Y83300D01*
X18900D01*
Y63300D01*
X8900D01*
G01X18957Y109680D02*
X16988D01*
G01X12461Y129365D02*
X8130D01*
Y109680D01*
X9311D01*
G01X23484Y129365D02*
X27815D01*
Y109680D01*
X26634D01*
G01X22500Y119522D02*
X13642D01*
G01X17972Y124050D02*
Y114994D01*
G01X23878Y119522D02*
G03X17972Y125428I-5906J0D01*
G03X12067Y119325I1J-5909D01*
G03X17972Y113617I5899J194D01*
G03X23878Y119522I1J5905D01*
G01X45078Y100100D02*
Y91242D01*
G01X40550Y95572D02*
X49606D01*
G01X45078Y101478D02*
G03X39172Y95572I0J-5906D01*
G03X45275Y89667I5909J1D01*
G03X50983Y95572I-194J5899D01*
G03X45078Y101478I-5905J1D01*
G01X54920Y96557D02*
Y94588D01*
G01X35235Y90061D02*
Y85730D01*
X54920D01*
Y86911D01*
G01X35235Y101084D02*
Y105415D01*
X54920D01*
Y104234D01*
G01X55900Y130700D02*
X61000D01*
G01X54300Y110600D02*
X59400D01*
G01X58800Y126300D02*
X63500D01*
G01X48201Y126383D02*
X43101Y126346D01*
G01X39901Y126323D02*
X34902Y126286D01*
G01X43816Y110651D02*
X39116Y110617D01*
G01X54400Y119100D02*
X59100D01*
G01X34700Y118700D02*
X39400D01*
G01X43200D02*
X47900D01*
G01X56100Y137900D02*
X60800D01*
G01X81600Y36500D02*
X86700D01*
G01X89900D02*
X94900D01*
G01X81700Y43900D02*
X86400D01*
G01X90200D02*
X94900D01*
G01X86100Y52200D02*
X90800D01*
G01X81818Y58960D02*
X81806Y63659D01*
G01X89555Y54404D02*
X89630Y59103D01*
G01X89691Y62902D02*
X89766Y67602D01*
G01X64200Y130700D02*
X69200D01*
G01X62600Y110600D02*
X67600D01*
G01X62900Y119100D02*
X67600D01*
G01X64600Y137900D02*
X69300D01*
G01X60400Y146400D02*
X65100D01*
G01X108335Y22561D02*
Y18230D01*
X128020D01*
Y19411D01*
G01X118178Y32600D02*
Y23742D01*
G01X113650Y28072D02*
X122706D01*
G01X118178Y33978D02*
G03X112272Y28072I0J-5906D01*
G03X118375Y22167I5909J1D01*
G03X124083Y28072I-194J5899D01*
G03X118178Y33978I-5905J1D01*
G01X108335Y33584D02*
Y37915D01*
X128020D01*
Y36734D01*
G01X120901Y68823D02*
X115902Y68786D01*
G01X124816Y53151D02*
X120116Y53117D01*
G01X97529Y54500D02*
X97516Y59600D01*
G01X97508Y62800D02*
X97495Y67799D01*
G01X115900Y61300D02*
X120600D01*
G01X91800Y103500D02*
X96900D01*
G01X100100D02*
X105100D01*
G01X96100Y119200D02*
X100800D01*
G01X92100Y111400D02*
X96800D01*
G01X100600D02*
X105300D01*
G01X142000Y39900D02*
X152000D01*
Y112700D01*
X142000D01*
Y39900D01*
G01X128020Y29057D02*
Y27088D01*
G01X129201Y68883D02*
X124101Y68846D01*
G01X124400Y61300D02*
X129100D01*
M02*
